<svg xmlns="http://www.w3.org/2000/svg" width="154" height="120.662" viewBox="0 0 154 120.662"><defs><style>.a{fill:#006eda;}</style></defs><path class="a" d="M101.945,158.74H3.5a3.5,3.5,0,0,1-3.5-3.5v-48.18a3.5,3.5,0,0,1,3.5-3.5H7.919a3.5,3.5,0,1,1,0,7H7v41.176H98.443v-.848a3.5,3.5,0,1,1,7,0v4.35A3.5,3.5,0,0,1,101.945,158.74Zm48.553-5.821H119.875a3.5,3.5,0,0,1,0-7H147V45.082H64.135V75.138a3.5,3.5,0,1,1-7,0V41.58a3.5,3.5,0,0,1,3.5-3.5H150.5a3.5,3.5,0,0,1,3.5,3.5V149.417A3.5,3.5,0,0,1,150.5,152.919ZM119.875,141.01H21.433a3.5,3.5,0,0,1-3.5-3.5V89.328a3.5,3.5,0,0,1,3.5-3.5h98.442a3.5,3.5,0,0,1,3.5,3.5v48.18A3.5,3.5,0,0,1,119.875,141.01Zm-94.94-7h91.438V92.83H24.935Zm109.455,4.346a3.5,3.5,0,0,1-1.49-6.674,5.082,5.082,0,0,0,0-8.082,3.5,3.5,0,0,1,2.975-6.341c3.663,1.719,6.029,5.794,6.029,10.382s-2.367,8.664-6.029,10.382A3.486,3.486,0,0,1,134.39,138.352Zm-63.736-11.81a13.124,13.124,0,1,1,13.125-13.124A13.139,13.139,0,0,1,70.654,126.542Zm0-19.244a6.12,6.12,0,1,0,6.12,6.12A6.127,6.127,0,0,0,70.654,107.3Zm33.738,9.622H95.376a3.5,3.5,0,1,1,0-7h9.017a3.5,3.5,0,1,1,0,7Zm-58.459,0H36.916a3.5,3.5,0,1,1,0-7h9.017a3.5,3.5,0,1,1,0,7Zm84.313-42.131H80.885a3.5,3.5,0,0,1,0-7h49.361a3.5,3.5,0,1,1,0,7ZM120.7,60.414H90.21a3.5,3.5,0,1,1,0-7H120.7a3.5,3.5,0,0,1,0,7Z" transform="translate(0 -38.078)"/></svg>