<svg xmlns="http://www.w3.org/2000/svg" width="19.113" height="27.932" viewBox="0 0 19.113 27.932"><path d="M836.344,469.8h-2.339c-.005-.065-.014-.13-.014-.2q0-1.1,0-2.191V466.7c-.628,0-1.221.005-1.813,0-.15,0-.192.043-.191.192.006.969,0,1.939,0,2.909h-2.376c0-.972,0-1.943,0-2.915,0-.135-.027-.187-.177-.186q-2.483.009-4.965.005a.644.644,0,0,1-.152-.036v-3.2a1.728,1.728,0,0,1,.211-.029q1.123,0,2.247,0a.576.576,0,0,0,.641-.639V448.98a.572.572,0,0,0-.639-.64c-.744,0-1.487,0-2.231,0a1.811,1.811,0,0,1-.229-.029v-.864a.38.38,0,0,0,.035-.108q0-.972,0-1.943a.38.38,0,0,0-.035-.108v-.18a2,2,0,0,1,.229-.025q2.416,0,4.834,0h.228v-3.213h2.376v3.208h2v-.224q0-1.385,0-2.77c0-.071.009-.143.014-.214h2.339a1.349,1.349,0,0,1,.032.207c0,.5,0,1.008,0,1.511s0,1,0,1.493c0,.058.054.158.095.165.276.05.554.084.832.114a5.318,5.318,0,0,1,1.444.37,5.731,5.731,0,0,1,1.836,1.245,5.276,5.276,0,0,1,1.206,1.743,4.935,4.935,0,0,1,.364,1.827,5.008,5.008,0,0,1-.591,2.544,4.763,4.763,0,0,1-2.45,2.125c.181.068.34.131.5.187a6.242,6.242,0,0,1,1.561.81,5.275,5.275,0,0,1,1.547,1.7,4.594,4.594,0,0,1,.6,1.68c.025.19.069.379.1.568v.792c-.013.054-.03.107-.038.162a6.422,6.422,0,0,1-.089.638,5.719,5.719,0,0,1-.513,1.374,5.609,5.609,0,0,1-2.141,2.217,8.046,8.046,0,0,1-2.346.924c-.579.128-1.17.2-1.758.289-.139.02-.176.069-.175.2.005.947,0,1.893,0,2.84A1.233,1.233,0,0,1,836.344,469.8Zm-4.5-9.424c0,.953,0,1.907,0,2.86,0,.158.044.206.2.2.946-.02,1.891-.03,2.837-.046.2,0,.4-.012.592-.032a4.915,4.915,0,0,0,2.077-.505,2.683,2.683,0,0,0,1.23-1.4,3.136,3.136,0,0,0,.129-1.708A2.629,2.629,0,0,0,837.666,458a4.1,4.1,0,0,0-1.961-.577c-.7-.053-1.405-.07-2.108-.087-.516-.013-1.034.017-1.55-.009-.2-.009-.2.067-.2.209Q831.846,458.954,831.844,460.375Zm-.006-12.035v5.2h.208q.729,0,1.457,0a8.375,8.375,0,0,0,2.622-.3,2.229,2.229,0,0,0,1.276-.959,2.688,2.688,0,0,0,.295-2.016,2.047,2.047,0,0,0-1.218-1.45,5.71,5.71,0,0,0-2.29-.47c-.485-.016-.971-.005-1.457-.006Z" transform="translate(-824.322 -441.867)" fill="#fbd61d"/></svg>