<svg xmlns="http://www.w3.org/2000/svg" width="12.118" height="20.197" viewBox="0 0 12.118 20.197"><defs><style>.a{fill:#ffde00;}</style></defs><path class="a" d="M88,9.772A4.714,4.714,0,0,0,89.28,6.515,4.459,4.459,0,0,0,85.645,2.02V0H83.221V1.954H80.8V0H78.374V1.954H77.162V4.56h1.212V14.985H77.162v2.606h1.212V20.2H80.8V17.591h2.424V20.2h2.424V17.525A4.459,4.459,0,0,0,89.28,13.03,4.714,4.714,0,0,0,88,9.772ZM86.856,6.515a1.892,1.892,0,0,1-1.818,1.954H80.8V4.56h4.241A1.892,1.892,0,0,1,86.856,6.515Zm-1.818,8.469H80.8V11.075h4.241a1.96,1.96,0,0,1,0,3.909Z" transform="translate(-77.162)"/></svg>