<svg xmlns="http://www.w3.org/2000/svg" width="22.995" height="25.394" viewBox="0 0 22.995 25.394"><path d="M1102.489,460.917h.3c.9,0,1.792.011,2.687-.008a.335.335,0,0,1,.369.266,12,12,0,0,0,2.18,3.647,10.309,10.309,0,0,0,4.9,3.284,9.522,9.522,0,0,0,2.478.42,9.218,9.218,0,0,0,3.465-.581,10.4,10.4,0,0,0,2.662-1.454,11.235,11.235,0,0,0,2.188-2.179c.272-.354.511-.733.78-1.122l-1.583-.485c-.571-.174-1.141-.354-1.715-.519-.359-.1-.366-.181-.584.174a2.363,2.363,0,0,1-.273.313,6.192,6.192,0,0,1-4.594,2.29,5.474,5.474,0,0,1-2.421-.5,7.09,7.09,0,0,1-2.834-2.392c-.254-.355-.473-.735-.746-1.163h7.74v-3.974h-8.882v-2.2h8.556c.344,0,.344,0,.344-.354v-3.631h-7.693a.87.87,0,0,1,.038-.127,8.137,8.137,0,0,1,2.306-2.729,5.752,5.752,0,0,1,2.687-1.142,5.5,5.5,0,0,1,2.933.372,7.017,7.017,0,0,1,3.055,2.51c.368.53.666,1.11.981,1.675.066.117.1.124.222.083.365-.123.737-.222,1.108-.326.756-.212,1.513-.421,2.319-.645-.118-.26-.223-.5-.331-.731a11.923,11.923,0,0,0-2.648-3.7,10.444,10.444,0,0,0-3.3-2.143,9.846,9.846,0,0,0-2.567-.654,7.072,7.072,0,0,0-2.445.091,18.443,18.443,0,0,0-1.923.513,9.1,9.1,0,0,0-2.746,1.6,11.546,11.546,0,0,0-2.472,2.789,12.231,12.231,0,0,0-1.195,2.333.322.322,0,0,1-.363.238c-.9-.015-1.808-.007-2.712-.006-.088,0-.175.008-.288.014v3.355c0,.612,0,.612.609.612h1.755v2.2h-.241c-.614,0-1.228.008-1.842,0-.209,0-.288.042-.286.272.012,1.145.005,2.289.006,3.434C1102.475,460.718,1102.483,460.8,1102.489,460.917Z" transform="translate(-1102.469 -443.136)" fill="#5cf1f2"/></svg>