<svg xmlns="http://www.w3.org/2000/svg" width="20.935" height="35.134" viewBox="0 0 300 300"><defs><style>.cls-1{fill:#45c17a;}.cls-2{fill:#fff;}</style></defs><title>Asset 8</title><g id="Layer_2" data-name="Layer 2"><g id="Buttons"><circle class="cls-1" cx="150" cy="150" r="150"/><path class="cls-2" d="M154.6,245.62c-22.83,0-44.39-10-60.68-28.12s-25.16-41.87-25.16-67.08,8.93-49,25.16-67.08,37.85-28.12,60.68-28.12,44.87,10.22,60.86,28.05l1.65,1.84L202.2,101.66l-2-2.28a63,63,0,0,0-25.83-17.24c-1.44-.55-2.93-1.11-4.45-1.54-1.7-.47-3.06-.79-4.37-1a53.93,53.93,0,0,0-10.82-1.22h-.29c-35.48.12-64.32,32.42-64.32,72.09s28.83,72,64.31,72.09h.31a54.14,54.14,0,0,0,10.78-1.22c1.34-.25,2.7-.57,4.43-1.05,1.49-.43,3-1,4.38-1.51a63.08,63.08,0,0,0,25.87-17.27l2-2.27,14.91,16.55-1.65,1.84C199.47,235.39,177.28,245.62,154.6,245.62Z"/><path class="cls-2" d="M154.6,58c22.06,0,43.23,9.77,58.81,27.14l-11.2,12.44a66.24,66.24,0,0,0-26.94-18c-1.54-.58-3.06-1.15-4.63-1.6s-3-.79-4.61-1.09a57.25,57.25,0,0,0-11.33-1.27h-.1c-37.15,0-67.27,33.5-67.27,74.84s30.12,74.84,67.27,74.84h.1A58,58,0,0,0,166,224c1.56-.3,3.08-.68,4.61-1.09s3.09-1,4.63-1.6a66.24,66.24,0,0,0,26.94-18l11.2,12.44c-15.58,17.37-36.75,27.14-58.81,27.14-45.58,0-83.09-41.74-83.09-92.45S109,58,154.6,58m0-5.5c-23.62,0-45.9,10.31-62.73,29C75.19,100.06,66,124.53,66,150.42s9.18,50.36,25.86,68.92c16.83,18.72,39.11,29,62.73,29,23.46,0,46.39-10.56,62.91-29l3.3-3.68-3.31-3.68-11.2-12.44-4.1-4.55-4.09,4.56a60.18,60.18,0,0,1-24.71,16.49l-.05,0,0,0c-1.33.5-2.75,1-4.16,1.44-1.64.45-2.93.75-4.15,1h-.06a51.77,51.77,0,0,1-10.25,1.16h-.52c-33.86-.26-61.34-31.27-61.34-69.34s27.58-69.19,61.53-69.34h.34a51,51,0,0,1,10.24,1.16H165c1.22.24,2.51.54,4.15,1,1.41.41,2.83.93,4.16,1.44l0,0h.05a60.3,60.3,0,0,1,24.71,16.5l4.09,4.56,4.1-4.55,11.2-12.44,3.31-3.68-3.3-3.68c-16.52-18.4-39.45-29-62.91-29Z"/><rect class="cls-2" x="47.49" y="123.51" width="116.62" height="19.68"/><path class="cls-2" d="M163,124.61v17.48H48.59V124.61H163m2.2-2.2H46.39v21.88H165.21V122.41Z"/><rect class="cls-2" x="47.49" y="157.65" width="116.62" height="19.68"/><path class="cls-2" d="M163,158.75v17.48H48.59V158.75H163m2.2-2.2H46.39v21.88H165.21V156.55Z"/></g></g></svg>