<svg xmlns="http://www.w3.org/2000/svg" xmlns:xlink="http://www.w3.org/1999/xlink" width="40" height="40" viewBox="0 0 40 40"><defs><radialGradient id="a" cx="0.5" cy="0.5" r="0.5" gradientUnits="objectBoundingBox"><stop offset="0" stop-color="#3d7199"/><stop offset="1" stop-color="#293245"/></radialGradient></defs><g transform="translate(-1204.931 -1049.498)"><circle cx="20" cy="20" r="20" transform="translate(1204.931 1049.498)" fill="#1fbbd1"/><circle cx="19.29" cy="19.29" r="19.29" transform="translate(1205.641 1050.207)" fill="url(#a)"/><path d="M1233.645,1075.31l-5.206-5.206a.448.448,0,0,1,.089-.7l5.206-3.078a.448.448,0,0,1,.676.386v8.283A.448.448,0,0,1,1233.645,1075.31Zm-8.486-5.568,9.031-5.34a.445.445,0,0,0,.22-.385v-1.654a.448.448,0,0,0-.448-.449H1215.9a.449.449,0,0,0-.449.449v1.654a.449.449,0,0,0,.221.386l9.03,5.339A.449.449,0,0,0,1225.159,1069.742Zm-2.309.947-5.627,5.627a.448.448,0,0,0,.317.765h14.783a.448.448,0,0,0,.317-.765l-5.627-5.627a.448.448,0,0,0-.545-.069l-1.309.773a.444.444,0,0,1-.456,0l-1.308-.773A.448.448,0,0,0,1222.85,1070.689Zm-1.515-1.287-5.206-3.078a.449.449,0,0,0-.677.386v8.283a.449.449,0,0,0,.766.317l5.2-5.205A.448.448,0,0,0,1221.335,1069.4Zm13.075,7.679Z" fill="#f2f2f2"/></g></svg>