<svg xmlns="http://www.w3.org/2000/svg" xmlns:xlink="http://www.w3.org/1999/xlink" width="50" height="50" viewBox="0 0 50 50"><defs><radialGradient id="a" cx="0.5" cy="0.5" r="0.5" gradientUnits="objectBoundingBox"><stop offset="0" stop-color="#3d7199"/><stop offset="1" stop-color="#293245"/></radialGradient></defs><g transform="translate(-1463.026 -1094.61)"><circle cx="25" cy="25" r="25" transform="translate(1463.026 1094.61)" fill="#1fbbd1"/><circle cx="24.113" cy="24.113" r="24.113" transform="translate(1463.913 1095.498)" fill="url(#a)"/><path d="M1498.587,1125.157v.171c-.109.22-.232.435-.325.662a14.554,14.554,0,0,1-3.773,5.6,3.278,3.278,0,0,1-3.759.5,6.318,6.318,0,0,0-4.258-.637,8.278,8.278,0,0,0-1.589.534c-2.2,1.081-3.659.205-5.029-1.468a17.556,17.556,0,0,1-3.883-8.368c-.51-3.078-.385-5.96,1.715-8.554a6.212,6.212,0,0,1,7.458-1.787,4.2,4.2,0,0,0,3.784.229,7.361,7.361,0,0,1,5.7-.544,5.912,5.912,0,0,1,3.135,2.324c-.293.259-.549.47-.788.7a6.173,6.173,0,0,0-1.811,6.82A6.886,6.886,0,0,0,1498.587,1125.157Zm-11.228-14.668c2.713.521,5.775-3.36,5.209-6.064C1489.554,1104.495,1486.725,1107.989,1487.359,1110.489Z" fill="#f2f2f2"/></g></svg>