<svg xmlns="http://www.w3.org/2000/svg" xmlns:xlink="http://www.w3.org/1999/xlink" width="50" height="50" viewBox="0 0 50 50"><defs><radialGradient id="a" cx="0.5" cy="0.5" r="0.5" gradientUnits="objectBoundingBox"><stop offset="0" stop-color="#3d7199"/><stop offset="1" stop-color="#293245"/></radialGradient></defs><g transform="translate(-1532.897 -1093.066)"><circle cx="25" cy="25" r="25" transform="translate(1532.897 1093.066)" fill="#1fbbd1"/><circle cx="24.113" cy="24.113" r="24.113" transform="translate(1533.784 1093.953)" fill="url(#a)"/><path d="M1566.155,1114.3l-3.756,3.733-12.593-12.447a.943.943,0,0,1,.721.086Z" fill="#23e989"/><path d="M1566.206,1121.8l-15.679,8.659a.953.953,0,0,1-.723.086l12.6-12.509Z" fill="#ea4a3f"/><path d="M1562.4,1118.035l-12.6,12.509a.964.964,0,0,1-.711-.932V1106.52a.959.959,0,0,1,.713-.932Z" fill="#67ccf7"/><path d="M1571.438,1118.911l-5.232,2.888-3.807-3.764,3.756-3.733,5.283,2.919A.965.965,0,0,1,1571.438,1118.911Z" fill="#f7e40b"/></g></svg>