<svg xmlns="http://www.w3.org/2000/svg" width="151.034" height="118.228" viewBox="0 0 151.034 118.228"><defs><style>.a{fill:#006eda;}</style></defs><g transform="translate(0 -4.275)"><g transform="translate(0 4.275)"><g transform="translate(0 0)"><path class="a" d="M148.669,31.707a2.365,2.365,0,0,0,2.365-2.365V16.73A12.469,12.469,0,0,0,138.579,4.275H57.86A12.469,12.469,0,0,0,45.4,16.73v5.2H12.455A12.469,12.469,0,0,0,0,34.387v50.45A12.469,12.469,0,0,0,12.455,97.292h5.2v22.86a2.386,2.386,0,0,0,3.879,1.817L51.148,97.292H93.174a12.471,12.471,0,0,0,12.349-10.857l21.452,17.877a2.386,2.386,0,0,0,3.879-1.817V79.634h7.725a12.469,12.469,0,0,0,12.455-12.455V39.432a2.365,2.365,0,0,0-4.73,0V67.179a7.734,7.734,0,0,1-7.725,7.725h-10.09a2.365,2.365,0,0,0-2.365,2.365V97.445L105.787,80.5c-.051-.042-.1-.081-.158-.119V67.022H118.4a2.365,2.365,0,0,0,0-4.73h-12.77V46.842h2.68a2.365,2.365,0,0,0,0-4.73h-2.68V34.387A12.469,12.469,0,0,0,93.174,21.932H50.134v-5.2A7.734,7.734,0,0,1,57.86,9h80.72a7.734,7.734,0,0,1,7.725,7.725V29.342A2.365,2.365,0,0,0,148.669,31.707ZM93.174,26.662a7.734,7.734,0,0,1,7.725,7.725v50.45a7.734,7.734,0,0,1-7.725,7.725H50.292a2.364,2.364,0,0,0-1.514.548L22.387,115.1V94.927a2.365,2.365,0,0,0-2.365-2.365H12.455A7.734,7.734,0,0,1,4.73,84.837V34.387a7.734,7.734,0,0,1,7.725-7.725Z" transform="translate(0 -4.275)"/></g></g><g transform="translate(103.422 21.932)"><g transform="translate(0 0)"><path class="a" d="M375.664,64.133h-22.7a2.365,2.365,0,0,0,0,4.73h22.7a2.365,2.365,0,1,0,0-4.73Z" transform="translate(-350.597 -64.133)"/></g></g><g transform="translate(113.512 42.112)"><path class="a" d="M399.778,132.542H387.166a2.365,2.365,0,1,0,0,4.73h12.612a2.365,2.365,0,1,0,0-4.73Z" transform="translate(-384.801 -132.542)"/></g><g transform="translate(22.702 52.202)"><path class="a" d="M84.37,166.746a7.41,7.41,0,1,0,7.41,7.41A7.418,7.418,0,0,0,84.37,166.746Zm0,10.09a2.68,2.68,0,1,1,2.68-2.68A2.683,2.683,0,0,1,84.37,176.836Z" transform="translate(-76.96 -166.746)"/></g><g transform="translate(45.405 52.202)"><path class="a" d="M161.331,166.746a7.41,7.41,0,1,0,7.41,7.41A7.418,7.418,0,0,0,161.331,166.746Zm0,10.09a2.68,2.68,0,1,1,2.68-2.68A2.683,2.683,0,0,1,161.331,176.836Z" transform="translate(-153.921 -166.746)"/></g><g transform="translate(68.107 52.202)"><path class="a" d="M238.291,166.746a7.41,7.41,0,1,0,7.41,7.41A7.418,7.418,0,0,0,238.291,166.746Zm0,10.09a2.68,2.68,0,1,1,2.68-2.68A2.683,2.683,0,0,1,238.291,176.836Z" transform="translate(-230.881 -166.746)"/></g></g></svg>