<svg xmlns="http://www.w3.org/2000/svg" width="20.935" height="35.134" viewBox="0 0 300 300"><defs><style>.cls-1{fill:#fff;}.cls-2{fill:#26a17b;}</style></defs><title>Asset 1</title><g id="Layer_2" data-name="Layer 2"><g id="Buttons"><path class="cls-1" d="M287.5,138.2a134.8,134.8,0,0,0-22.78-64.9C245.47,44.81,219.15,26,186,16.76a128.53,128.53,0,0,0-27.83-4.53,12.06,12.06,0,0,1-1.44-.25H143.26c-1.69.17-3.38.37-5.07.51a132.47,132.47,0,0,0-46,12.22Q40,49.4,20,103.63a129.8,129.8,0,0,0-7.52,34.58c-.13,1.68-.34,3.37-.51,5v13.48c.17,1.68.37,3.37.51,5.06a133.56,133.56,0,0,0,16,53.71c17.53,31.92,43.65,53.75,78.12,65.52a130,130,0,0,0,31.53,6.47c1.69.14,3.38.34,5.07.52h13.48c1.69-.18,3.38-.37,5.07-.52a134.26,134.26,0,0,0,63.3-21.74c31.19-20.54,50.95-49.18,59.56-85.49a121.79,121.79,0,0,0,3.1-22.09,10.34,10.34,0,0,1,.25-1.44V143.26C287.85,141.57,287.65,139.89,287.5,138.2Z"/><path class="cls-2" d="M157.32,300H142.68c-1.84-.19-3.67-.41-5.51-.56a141.11,141.11,0,0,1-34.27-7Q46.7,273.23,18,221.2A145.11,145.11,0,0,1,.56,162.82C.4,161,.19,159.16,0,157.32V142.68c.19-1.84.41-3.66.55-5.5A141,141,0,0,1,8.73,99.6Q30.44,40.75,87.15,13.83a143.75,143.75,0,0,1,50-13.27C139,.4,140.84.19,142.68,0h14.64a14.49,14.49,0,0,0,1.58.27,140,140,0,0,1,30.23,4.92c36,10,64.63,30.49,85.55,61.46a146.43,146.43,0,0,1,24.76,70.52c.16,1.84.37,3.67.56,5.51v14.64a14.32,14.32,0,0,0-.27,1.57,132,132,0,0,1-3.37,24c-9.35,39.47-30.83,70.6-64.73,92.92a146,146,0,0,1-68.8,23.63C161,299.6,159.16,299.81,157.32,300ZM168,107.1h50.67V73.37h-138V107.2h50.56v22.13c-1.76.09-3.46.1-5.15.27-9.07.92-18.15,1.75-27.19,2.87a125.37,125.37,0,0,0-25.71,5.85c-4,1.39-8,3-11.22,5.8-3.88,3.36-3.82,6.94.12,10.19,3.72,3.07,8.14,4.76,12.64,6.19,15.48,4.91,31.49,6.68,47.58,7.94,3,.23,5.91.39,9.06.59V240H168V169.13a10.93,10.93,0,0,1,1.12-.19c3.11-.2,6.24-.27,9.34-.6,7.47-.78,14.93-1.56,22.37-2.56a129.44,129.44,0,0,0,25.69-5.94A35,35,0,0,0,237,154.46c4.16-3.34,4.25-7.35,0-10.54a33.8,33.8,0,0,0-7.33-4.16c-12.87-5.3-26.53-7.21-40.23-8.75-6.68-.75-13.41-1.08-20.13-1.56-1-.07-1.3-.44-1.29-1.43,0-4.25,0-8.49,0-12.74ZM115.45,133a178.3,178.3,0,0,0-32.95,5.35A91.93,91.93,0,0,0,72.68,142a11.35,11.35,0,0,0-2.92,1.92c-2.86,2.41-2.81,5,.16,7.28,3.59,2.75,7.82,4.12,12.09,5.28,13.84,3.77,28,5.33,42.28,6.11q14.25.78,28.53.71c9.12,0,18.25-.45,27.35-1,6.85-.46,13.68-1.34,20.48-2.31A106.62,106.62,0,0,0,221.78,155c3-1.07,5.94-2.23,8.24-4.53,2-2,2.07-4.2,0-6.1a18.82,18.82,0,0,0-4.24-2.81c-5.14-2.54-10.68-3.86-16.26-5a259.36,259.36,0,0,0-35.35-4.35c-2-.14-4,0-6.19,0v24.52a304.35,304.35,0,0,1-36.62,0V131.75C125.85,132.17,120.65,132.54,115.45,133Z"/></g></g></svg>