<svg xmlns="http://www.w3.org/2000/svg" width="20.935" height="35.134" viewBox="0 0 300 300"><defs><style>.cls-1{fill:#45c17a;}.cls-2{fill:#fff;}</style></defs><title>Asset 7</title><g id="Layer_2" data-name="Layer 2"><g id="Buttons"><circle class="cls-1" cx="150" cy="150" r="150"/><path class="cls-2" d="M150,237.93c-28.95,0-50.64-19.28-51.56-45.86l0-1.16h18.73l0,1.06c1,18.71,17.69,27.23,32.82,27.23s33-7.11,33-27.17c0-13.91-15-22.06-37.82-32.89-22-10.42-46.91-22.24-46.91-47.5C98.27,83.79,120,63.57,150,63.57c29.07,0,50.25,18.61,51.51,45.26l.05,1.18H182.86l-.07-1.05C181.5,90.55,165.41,82.3,150,82.3c-22.82,0-33,14.74-33,29.34,0,12.48,14.33,20.21,36.2,30.58C176,153,201.73,165.22,201.73,192,201.73,223.57,174.93,237.93,150,237.93Z"/><path class="cls-2" d="M150,64.69c28.47,0,49.18,18.49,50.39,44.19H183.91C182.58,90,165.81,81.18,150,81.18c-23.59,0-34.15,15.3-34.15,30.46,0,13.14,14.59,21,36.84,31.59,22.45,10.64,47.89,22.71,47.89,48.8,0,30.77-26.22,44.78-50.58,44.78-28.69,0-49.53-18.76-50.44-44.78h16.5c1,19.36,18,28.3,33.94,28.3,15.73,0,34.09-7.42,34.09-28.3,0-14.57-15.23-22.89-38.46-33.91C124,147.84,99.39,136.19,99.39,111.64c0-27.2,21.3-46.95,50.64-46.95m0-2.24c-30.64,0-52.88,20.69-52.88,49.19,0,26,25.26,38,47.55,48.51,22.45,10.66,37.18,18.63,37.18,31.88,0,19.23-17.16,26.05-31.85,26.05-15.11,0-30.76-8.09-31.7-26.16l-.11-2.13h-21l.09,2.32a46.86,46.86,0,0,0,15.55,33.75c9.55,8.51,22.74,13.2,37.13,13.2,25.44,0,52.82-14.72,52.82-47,0-27.52-26.12-39.9-49.17-50.83-21.48-10.18-35.56-17.74-35.56-29.56,0-14,9.87-28.21,31.91-28.21,14.86,0,30.4,7.92,31.64,25.61l.14,2.09h21l-.11-2.35a46.85,46.85,0,0,0-15.73-33.31c-9.52-8.4-22.63-13-36.9-13Z"/><rect class="cls-2" x="140.65" y="45.24" width="18.73" height="209.96"/><path class="cls-2" d="M158.26,46.36V254.08H141.77V46.36h16.49m2.24-2.25h-21V256.32h21V44.11Z"/></g></g></svg>