<svg xmlns="http://www.w3.org/2000/svg" width="20.935" height="35.134" viewBox="0 0 300 299.86"><defs><style>.cls-1{fill:#fff;}.cls-2{fill:#f39b11;}</style></defs><title>Asset 5</title><g id="Layer_2" data-name="Layer 2"><g id="Buttons"><path class="cls-1" d="M129.49,293.86l-10-1.75a11.74,11.74,0,0,0-1.3-.45,147.42,147.42,0,0,1-25.95-8.39,145.63,145.63,0,0,1-71.45-66.71,141.6,141.6,0,0,1-16-60c-.22-5.44,0-10.89.23-16.34.13-3.52.53-7,.81-10.56l1.81-10.3c.18-.54.37-1.09.53-1.64,1.53-5.23,2.9-10.51,4.59-15.69A135.52,135.52,0,0,1,33,63.45,144.27,144.27,0,0,1,71.13,27.71,142.26,142.26,0,0,1,137.42,5c7.3-.6,14.7-.24,22.05-.14,3.52,0,7.05.51,10.57.79l10.65,1.88A11.79,11.79,0,0,0,182,8a149.37,149.37,0,0,1,25.62,8.31A141.76,141.76,0,0,1,237.83,34q38.39,29.6,51.94,76.15a141.16,141.16,0,0,1,4.7,54.55c-.19,1.83-.32,3.68-.47,5.52l-1.76,10a13.17,13.17,0,0,0-.49,1.46A145.48,145.48,0,0,1,181.44,291.72a142.42,142.42,0,0,1-45.57,2.7C133.75,294.21,131.62,294.05,129.49,293.86Z"/><path class="cls-2" d="M128.83,298.52l-10.28-1.81a13.25,13.25,0,0,0-1.34-.46,153.46,153.46,0,0,1-26.8-8.66,150.24,150.24,0,0,1-73.75-68.87A146,146,0,0,1,.09,156.82c-.23-5.61,0-11.25.23-16.86.13-3.64.55-7.27.84-10.91L3,118.42c.18-.57.38-1.12.55-1.69,1.57-5.41,3-10.86,4.73-16.21A139.93,139.93,0,0,1,29.2,60.65,148.93,148.93,0,0,1,68.58,23.76,147,147,0,0,1,137,.35C144.56-.27,152.19.1,159.78.2c3.64,0,7.27.53,10.91.82l11,1.94a11.23,11.23,0,0,0,1.34.47A153.85,153.85,0,0,1,209.47,12a145.49,145.49,0,0,1,31.2,18.27q39.65,30.56,53.62,78.61a145.71,145.71,0,0,1,4.86,56.31c-.2,1.9-.33,3.8-.49,5.7l-1.82,10.28c-.17.5-.39,1-.51,1.51A150.14,150.14,0,0,1,182.46,296.31a147,147,0,0,1-47,2.79C133.22,298.88,131,298.71,128.83,298.52Zm68-146.58a3.86,3.86,0,0,1,.59-.22,35.68,35.68,0,0,0,21.31-17.16c8.81-16,9.67-32.21.61-48.44-4.12-7.37-9.65-13.5-17.57-16.87a147,147,0,0,0-14.08-4.84c-1.43-.44-1.75-.91-1.48-2.32.82-4.12,1.49-8.27,2.22-12.41.08-.51.12-1,.17-1.54L170.85,45l-2.63,14.89L151.8,57l2.63-14.92c-3.66-.64-7.07-1.27-10.49-1.84-2.36-.4-4.72-.73-7.08-1.09-.53,2.37-1.11,4.72-1.59,7.09s-.9,5-1.39,7.8l-29.49-5.2-.35,2c-1.1,6.26-2.16,12.54-3.35,18.78-.29,1.53,0,2.11,1.6,2.36,6.1,1,12.18,2.11,18.26,3.19l1.79.31L98.58,210.23c-6.82-1.2-13.51-2.35-20.17-3.58-1.36-.26-1.9,0-2.14,1.45q-1.56,9.6-3.38,19.14c-.31,1.61.13,2,1.65,2.31C83,231,91.45,232.49,99.9,234c.69.12,1.37.31,2.16.49-.8,4.54-1.56,8.91-2.35,13.27-.15.87-.36,1.67.9,1.89,5.49,1,11,1.93,16.71,2.94L120,237.66l16.49,2.91-2.62,14.87,17.8,3.14L154.38,243c.81,0,1.52.07,2.22.14a74.53,74.53,0,0,0,28.28-1.92,45.77,45.77,0,0,0,28-21.37,51.4,51.4,0,0,0,7.07-31.19c-.85-10.58-4.66-19.92-12.17-27.47C204.41,157.79,200.5,155,196.83,151.94Zm-69.75,63.3c12.15,2.16,24.26,4.73,36.66,5,9.12.17,16.74-3.11,22.4-10.42a32.32,32.32,0,0,0,6.15-15.9c1.34-10-1.45-18.6-9.21-25.32-5-4.29-11-6.4-17.16-7.79-9.18-2.07-18.47-3.65-27.71-5.42-.4-.08-.82-.09-1.33-.14L126.35,215A4.55,4.55,0,0,0,127.08,215.24ZM141,131.15c-.22,1.26.31,1.53,1.37,1.71,5.44.93,10.85,2.16,16.32,2.81a114.59,114.59,0,0,0,15.92.9c8.23-.18,14.77-3.78,18.85-11.15a33.21,33.21,0,0,0,4.05-15.12,21.46,21.46,0,0,0-9.76-19.48,43.32,43.32,0,0,0-16-6.57c-6.74-1.43-13.57-2.47-20.37-3.67-.4-.07-.81-.09-1.39-.15C147,97.48,144,114.32,141,131.15Z"/></g></g></svg>