<svg xmlns="http://www.w3.org/2000/svg" width="24" height="840"><svg width="24" height="24"><g fill="none" fill-rule="evenodd"><circle fill="#FAB915" cx="12" cy="12" r="12"/><path d="M20.456 3.485C15.77-1.2 8.172-1.2 3.486 3.485c-4.687 4.687-4.687 12.285 0 16.97l16.97-16.97z" fill="#FFC940"/><path d="M12 22c5.523 0 10-4.477 10-10S17.523 2 12 2 2 6.477 2 12s4.477 10 10 10zm0 1C5.925 23 1 18.075 1 12S5.925 1 12 1s11 4.925 11 11-4.925 11-11 11z" fill="#0F141F" fill-rule="nonzero"/><path d="M8.392 6A6.996 6.996 0 005 12a6.996 6.996 0 003.392 6H3l-1.765-6L3 6h5.392zm7.216 0H21l1.623 6.098L21 18h-5.392A6.996 6.996 0 0019 12a6.996 6.996 0 00-3.392-6z" fill="#0F141F" fill-rule="nonzero"/><path d="M14.646 10.946c.474-.437.68-1.033.368-1.835-.425-1.101-1.508-1.208-2.772-.971l-.438-1.569-.955.268.426 1.527c-.25.07-.508.148-.76.224l-.429-1.538-.955.267.437 1.57c-.205.061-.408.122-.608.178l-.001-.005-1.316.367.287 1.022s.702-.213.694-.195c.387-.11.577.081.667.264l.5 1.788c.027-.007.062-.016.102-.023a1.15 1.15 0 01-.1.03l.7 2.503c.016.128 0 .34-.272.42.017.004-.694.191-.694.191l.129 1.195 1.244-.345c.23-.065.462-.127.685-.187l.445 1.587.954-.266-.44-1.572c.263-.068.52-.137.767-.205l.435 1.56.957-.266-.444-1.58c1.58-.546 2.592-1.265 2.308-2.813-.225-1.243-.948-1.624-1.92-1.59zm-3.794-1.24c.54-.15 2.186-.796 2.502.33.3 1.079-1.428 1.427-1.968 1.578l-.534-1.908zm1.39 4.974l-.586-2.103c.648-.183 2.623-.936 2.972.3.333 1.186-1.739 1.621-2.387 1.803z" fill="#0F141F" fill-rule="nonzero"/></g></svg><svg width="24" height="24" y="24"><g fill="none" fill-rule="evenodd"><circle fill="#FAB915" cx="12" cy="12" r="12"/><path d="M20.456 3.485C15.77-1.2 8.172-1.2 3.486 3.485c-4.687 4.687-4.687 12.285 0 16.97l16.97-16.97z" fill="#FFC940"/><path d="M12 22c5.523 0 10-4.477 10-10S17.523 2 12 2 2 6.477 2 12s4.477 10 10 10zm0 1C5.925 23 1 18.075 1 12S5.925 1 12 1s11 4.925 11 11-4.925 11-11 11z" fill="#DE9F00" fill-rule="nonzero"/><path d="M16.023 9.418c-.154-1.436-1.4-1.905-2.968-2.025L13.033 5.4l-1.213.014.02 1.94a45.14 45.14 0 00-.969.025l-.02-1.954-1.214.012.019 1.995c-.261.007-.52.014-.774.018l-1.672.01.016 1.298s.897-.028.882-.01c.492-.007.656.279.705.524l.023 2.271c.035 0 .08 0 .129.006-.043.003-.085.003-.129.003l.035 3.18c-.02.157-.107.402-.453.41.018.01-.882.006-.882.006l-.225 1.454 1.58-.015c.293-.003.586-.003.868-.003l.023 2.016 1.212-.012-.021-1.997c.331.002.656.002.97 0l.02 1.983 1.216-.013-.025-2.009c2.04-.144 3.464-.673 3.62-2.592.127-1.542-.607-2.22-1.766-2.489.698-.367 1.13-1.005 1.015-2.053zm-2.256.568c.014 1.37-2.139 1.235-2.825 1.242l-.027-2.424c.686-.007 2.836-.248 2.852 1.182zm-2.785 5.136l-.026-2.67c.824-.011 3.397-.276 3.418 1.296.017 1.506-2.568 1.365-3.392 1.374z" fill="#0F141F" fill-rule="nonzero"/></g></svg><svg width="24" height="24" fill="none" y="48"><path d="M12.005 22.506c5.804 0 10.51-4.704 10.51-10.506 0-5.802-4.706-10.506-10.51-10.506C6.2 1.494 1.495 6.198 1.495 12c0 5.802 4.705 10.506 10.51 10.506z" fill="#fff"/><path d="M12.005 0C5.369 0 0 5.376 0 12s5.369 12 12.005 12C18.64 24 24 18.624 24 12S18.631 0 12.005 0zm0 21.24c-5.105 0-9.243-4.137-9.243-9.24 0-5.103 4.138-9.24 9.243-9.24 5.104 0 9.233 4.137 9.233 9.24 0 5.102-4.138 9.24-9.233 9.24z" fill="url(#ic_coin_btg-paint0_linear)"/><path fill-rule="evenodd" clip-rule="evenodd" d="M10.391 7.48V6.233h1.176v1.249h.82v-1.25h1.176v1.256a2.563 2.563 0 012.37 2.553 2.59 2.59 0 01-.54 1.587 2.56 2.56 0 011.17 2.149c0 1.412-1.15 2.578-2.562 2.578h-.438v1.203h-1.176v-1.203h-.82v1.203h-1.176v-1.203H7.584l.72-1.44h.82V8.92h-.83l-.72-1.44h2.817zm.173 7.436h3.437c.62 0 1.13-.51 1.13-1.13 0-.62-.51-1.13-1.13-1.13h-3.437v2.26zm0-3.736h2.817c.62 0 1.13-.51 1.13-1.13 0-.62-.51-1.13-1.13-1.13h-2.817v2.26z" fill="#152569"/><path d="M12.005 20.173c-4.512 0-8.177-3.663-8.177-8.173s3.665-8.173 8.177-8.173c4.511 0 8.176 3.663 8.176 8.173s-3.674 8.173-8.176 8.173zm0-15.526c-4.057 0-7.356 3.298-7.356 7.353s3.3 7.353 7.356 7.353S19.36 16.055 19.36 12s-3.3-7.353-7.355-7.353z" fill="#152569"/><defs><linearGradient id="ic_coin_btg-paint0_linear" x1="5.579" y1="2.285" x2="19.956" y2="24.051" gradientUnits="userSpaceOnUse"><stop stop-color="#F4D933"/><stop offset="1" stop-color="#E3821F"/></linearGradient></defs></svg><svg width="24" height="24" fill="none" y="72"><g clip-path="url(#ic_coin_btt-clip0)"><path d="M19.925 20.132c4.491-4.491 4.491-11.773 0-16.264-4.49-4.49-11.772-4.49-16.263 0-4.491 4.491-4.491 11.773 0 16.264 4.49 4.49 11.772 4.49 16.263 0z" fill="#000"/><path fill-rule="evenodd" clip-rule="evenodd" d="M19.425 19.425c4.1-4.1 4.1-10.75 0-14.85s-10.75-4.1-14.85 0-4.1 10.75 0 14.85 10.75 4.1 14.85 0zm1.06-15.91c4.687 4.686 4.687 12.284 0 16.97-4.686 4.687-12.284 4.687-16.97 0-4.687-4.686-4.687-12.284 0-16.97 4.686-4.687 12.284-4.687 16.97 0z" fill="#fff"/><path d="M12.251 21.721c.034 0 .068-.002.101-.003l.048-.001.104-.004.039-.002a8.361 8.361 0 00.284-.018l.039-.003.106-.01.04-.003a8.98 8.98 0 00.117-.013l.023-.002.146-.018h.004l.136-.019.03-.004c.038-.006.077-.011.115-.018l.028-.004.138-.023a9.497 9.497 0 00.433-.088l.018-.003c.095-.022.19-.045.285-.07a11.27 11.27 0 01-2.75-.257c-1.357-.29-2.653-.821-3.745-1.738a7.594 7.594 0 01-2.734-5.897 7.213 7.213 0 011.689-4.582c1.4-1.667 3.4-2.542 5.446-2.583.094-.002.189-.002.283 0V4.726a9.108 9.108 0 00-2.164.228 8.829 8.829 0 00-6.847 7.813 9.018 9.018 0 00-.037.86 9.042 9.042 0 00.833 3.62c.31.674.868 1.672 1.685 2.433l.002.002a9.559 9.559 0 006.105 2.039z" fill="#fff"/><path d="M14.935 20.136a12.096 12.096 0 01-1.812-.196c-2.537-.462-4.718-2.005-5.52-4.349-.978-2.85.522-5.924 3.35-6.864a5.355 5.355 0 011.67-.274 5.433 5.433 0 012.113.42l.687-1.464a7.146 7.146 0 00-2.808-.568 7.014 7.014 0 00-4.612 1.758 6.943 6.943 0 00-2.098 3.405 7 7 0 00.147 4.103 6.893 6.893 0 001.474 2.448c.603.653 1.306 1.15 2.161 1.6.89.467 1.983.718 3.125.876.736.102 1.72.123 2.303.12.505-.187.719-.265.991-.382.238-.11.471-.228.698-.355.233-.139.274-.16.664-.415l.103-.075c-1.327.237-1.675.229-2.636.212z" fill="#fff"/><path d="M17.969 18.302c-.38.026-.92.057-1.537.057-1.094 0-2.436-.096-3.586-.479-1.769-.59-3.45-2.111-3.45-3.975a3.375 3.375 0 016.322-1.645l1.465-.723a4.99 4.99 0 00-.872-1.172 4.99 4.99 0 00-3.54-1.467 4.99 4.99 0 00-3.54 1.466 4.989 4.989 0 00-1.468 3.541c0 .68.146 1.35.433 1.991a5.82 5.82 0 001.068 1.588c.807.864 1.895 1.554 3.065 1.944 1.12.373 2.778.502 4.377.392a9.458 9.458 0 001.347-.193 9.66 9.66 0 001.48-1.472 46.78 46.78 0 01-1.564.147z" fill="#fff"/></g><defs><clipPath id="ic_coin_btt-clip0"><path fill="#fff" d="M0 0h24v24H0z"/></clipPath></defs></svg><svg width="24" height="24" fill="none" y="96"><path d="M11.996 24C18.628 24 24 18.63 24 12S18.628 0 11.996 0 0 5.37 0 12s5.372 12 11.996 12z" fill="#008CE3"/><path fill-rule="evenodd" clip-rule="evenodd" d="M3.514 20.486L20.486 3.514A11.968 11.968 0 0011.996 0C5.364 0 0 5.37 0 12c0 3.315 1.343 6.315 3.514 8.486z" fill="#009DFF"/><path d="M13.828 6.748H9.113l-.386 2.18 4.25.007c2.095 0 2.714.758 2.698 2.018-.007.649-.286 1.739-.41 2.094-.324.943-.98 2.025-3.47 2.018H7.66l-.394 2.187h4.7c1.653 0 2.364-.193 3.107-.54 1.654-.766 2.643-2.397 3.037-4.53.595-3.177-.139-5.434-4.282-5.434z" fill="#fff"/><path d="M7.088 10.906c-1.237 0-1.415.804-1.53 1.291-.155.634-.201.897-.201.897h4.823c1.236 0 1.414-.804 1.53-1.291.155-.634.201-.897.201-.897H7.088z" fill="#fff"/></svg><svg width="24" height="24" y="120"><g fill="none" fill-rule="evenodd"><g transform="translate(-5 -5)"><circle fill="#E6E6E6" cx="17" cy="17" r="12"/><path d="M25.485 8.515c-4.686-4.687-12.284-4.687-16.97 0-4.687 4.686-4.687 12.284 0 16.97l16.97-16.97z" fill="#F2F2F2"/><path d="M17 27c5.523 0 10-4.477 10-10S22.523 7 17 7 7 11.477 7 17s4.477 10 10 10zm0 1c-6.075 0-11-4.925-11-11S10.925 6 17 6s11 4.925 11 11-4.925 11-11 11z" fill="#CCC" fill-rule="nonzero"/></g><g fill="#010101" fill-rule="nonzero"><path opacity=".6" d="M12.096 9.883l-4.884 2.221 4.884 2.886 4.883-2.886z"/><path opacity=".45" d="M7.212 12.104l4.884 2.886V4z"/><path opacity=".8" d="M12.096 4v10.99l4.883-2.886z"/><path opacity=".45" d="M7.212 13.03l4.884 6.881v-3.995z"/><path opacity=".8" d="M12.096 15.916v3.995l4.886-6.881z"/></g></g></svg><svg width="24" height="24" y="144"><g fill="none" fill-rule="evenodd"><circle fill="#0C87F2" transform="rotate(-45 12 12)" cx="12" cy="12" r="12"/><path d="M20.456 3.485C15.77-1.2 8.172-1.2 3.486 3.485c-4.687 4.687-4.687 12.285 0 16.97l16.97-16.97z" fill="#319BF7"/><path d="M12 22c5.523 0 10-4.477 10-10S17.523 2 12 2 2 6.477 2 12s4.477 10 10 10zm0 1C5.925 23 1 18.075 1 12S5.925 1 12 1s11 4.925 11 11-4.925 11-11 11z" fill="#0A72CC"/><path d="M6.892 10.046h.938c.154-.65.377-1.207.67-1.67a4.071 4.071 0 011.03-1.129c.395-.29.826-.503 1.292-.64a5.11 5.11 0 011.454-.207c.533 0 1.008.04 1.423.12.415.081.761.177 1.039.288l-.539 1.56a3.483 3.483 0 00-.784-.207 6.907 6.907 0 00-1.047-.069c-.615 0-1.146.156-1.592.47-.446.313-.777.807-.992 1.484h3.984l-.4 1.461h-3.83c-.01.083-.016.165-.016.247v.646h3.538l-.4 1.461H9.754c.205.667.533 1.175.984 1.523.451.349 1.046.523 1.785.523.43 0 .802-.046 1.115-.138a3.78 3.78 0 00.839-.354l.415 1.535a2.582 2.582 0 01-.553.295 4.22 4.22 0 01-.677.204 6.862 6.862 0 01-1.43.151c-1.13 0-2.083-.3-2.862-.9-.78-.6-1.298-1.546-1.554-2.838H6.4l.492-1.462h.754v-.646c0-.082.005-.164.015-.246H6.4l.492-1.462z" fill="#FFF" fill-rule="nonzero"/></g></svg><svg width="24" height="24" y="168"><g fill="none" fill-rule="evenodd"><circle fill="#0C87F2" transform="rotate(-45 12 12)" cx="12" cy="12" r="12"/><path d="M20.456 3.485C15.77-1.2 8.172-1.2 3.486 3.485c-4.687 4.687-4.687 12.285 0 16.97l16.97-16.97z" fill="#319BF7"/><path d="M12 22c5.523 0 10-4.477 10-10S17.523 2 12 2 2 6.477 2 12s4.477 10 10 10zm0 1C5.925 23 1 18.075 1 12S5.925 1 12 1s11 4.925 11 11-4.925 11-11 11z" fill="#0A72CC"/><path d="M15.48 15.5v2.1H7.752v-1.373c.899-.372 1.898-1.338 1.898-2.49 0-.237-.016-.44-.05-.677H7.939v-1.746h1.355a7.353 7.353 0 01-.135-1.372c0-2.135 1.56-3.542 3.829-3.542.932 0 1.627.203 2 .406l-.425 1.95c-.32-.186-.796-.305-1.421-.305-1.204 0-1.576.779-1.576 1.593 0 .442.05.848.151 1.271h2.323v1.746h-2.102c.017.424-.016.812-.153 1.203a2.906 2.906 0 01-.83 1.203v.034l4.525-.001z" fill="#FFF" fill-rule="nonzero"/></g></svg><svg width="24" height="24" fill="none" y="192"><g clip-path="url(#ic_coin_ltc-clip0)"><path d="M20.485 20.485c4.687-4.686 4.687-12.284 0-16.97-4.686-4.687-12.284-4.687-16.97 0-4.687 4.686-4.687 12.284 0 16.97 4.686 4.687 12.284 4.687 16.97 0z" fill="#3D5C98"/><path d="M20.456 3.485C15.77-1.2 8.172-1.2 3.486 3.485c-4.687 4.687-4.687 12.285 0 16.97l16.97-16.97z" fill="#527BCC"/><path d="M11.739 15.59l.775-2.92L14.35 12l.457-1.716-.016-.042-1.807.66L14.286 6h-3.692L8.89 12.397l-1.421.52L7 14.685l1.42-.518-1.003 3.77h9.826l.63-2.347H11.74z" fill="#fff"/><path d="M12 22c5.523 0 10-4.477 10-10S17.523 2 12 2 2 6.477 2 12s4.477 10 10 10zm0 1C5.925 23 1 18.075 1 12S5.925 1 12 1s11 4.925 11 11-4.925 11-11 11z" fill="#fff"/></g><defs><clipPath id="ic_coin_ltc-clip0"><path fill="#fff" d="M0 0h24v24H0z"/></clipPath></defs></svg><svg width="24" height="24" fill="none" y="216"><g clip-path="url(#ic_coin_mhc-clip0)"><path d="M20.485 20.485c4.687-4.686 4.687-12.284 0-16.97-4.686-4.687-12.284-4.687-16.97 0-4.687 4.686-4.687 12.284 0 16.97 4.686 4.687 12.284 4.687 16.97 0z" fill="#0A2342"/><path d="M20.456 3.485C15.77-1.2 8.172-1.2 3.486 3.485c-4.687 4.687-4.687 12.285 0 16.97l16.97-16.97z" fill="#1B4073"/><path d="M12 22c5.523 0 10-4.477 10-10S17.523 2 12 2 2 6.477 2 12s4.477 10 10 10zm0 1C5.925 23 1 18.075 1 12S5.925 1 12 1s11 4.925 11 11-4.925 11-11 11z" fill="#fff"/><path d="M7.556 16.8h1.651a.4.4 0 00.391-.315l.755-3.454h2.882l-.717 3.284a.4.4 0 00.39.485h1.652a.4.4 0 00.391-.315l.343-1.57h2.149a.4.4 0 00.39-.314l.237-1.085a.4.4 0 00-.39-.485h-1.974l.412-2.262h2.148a.4.4 0 00.391-.314l.237-1.085a.4.4 0 00-.39-.485h-1.975l.306-1.4a.4.4 0 00-.39-.485h-1.652a.4.4 0 00-.391.315l-.755 3.454h-2.882l.717-3.284a.4.4 0 00-.39-.485H9.44a.4.4 0 00-.391.315l-.343 1.57H6.557a.4.4 0 00-.39.314l-.237 1.085a.4.4 0 00.39.485h1.974l-.412 2.262H5.734a.4.4 0 00-.391.314l-.237 1.085a.4.4 0 00.39.485h1.975l-.306 1.4a.4.4 0 00.39.485z" fill="#fff"/></g><defs><clipPath id="ic_coin_mhc-clip0"><path fill="#fff" d="M0 0h24v24H0z"/></clipPath></defs></svg><svg width="24" height="24" y="240"><g fill="none" fill-rule="evenodd"><circle fill="#0C87F2" transform="rotate(-45 12 12)" cx="12" cy="12" r="12"/><path d="M20.456 3.485C15.77-1.2 8.172-1.2 3.486 3.485c-4.687 4.687-4.687 12.285 0 16.97l16.97-16.97z" fill="#319BF7"/><path d="M12 22c5.523 0 10-4.477 10-10S17.523 2 12 2 2 6.477 2 12s4.477 10 10 10zm0 1C5.925 23 1 18.075 1 12S5.925 1 12 1s11 4.925 11 11-4.925 11-11 11z" fill="#0A72CC"/><path d="M12.49 13.249c.632 0 1.22-.067 1.767-.198a4.152 4.152 0 001.415-.613 2.89 2.89 0 00.931-1.07c.225-.437.336-.96.336-1.57 0-.598-.104-1.11-.31-1.535a2.789 2.789 0 00-.88-1.053c-.38-.276-.84-.48-1.38-.612a7.566 7.566 0 00-1.793-.198H8.853v5.382H8v1.45h.853v.793H8v1.449h.853v3.14h1.704v-3.14h4.524v-1.449h-4.524v-.774h1.932v-.002zm-1.93-5.396h1.845c.402 0 .776.031 1.123.095.346.064.641.172.888.327.247.155.443.356.587.601.143.247.216.553.216.921 0 .367-.07.677-.208.93a1.615 1.615 0 01-.586.61c-.253.156-.556.27-.907.345-.35.076-.733.113-1.147.113H10.56V7.854z" fill="#FFF" fill-rule="nonzero"/></g></svg><svg width="24" height="24" fill="none" y="264"><g clip-path="url(#ic_coin_trx-clip0)"><path d="M20.485 20.485c4.687-4.686 4.687-12.284 0-16.97-4.686-4.687-12.284-4.687-16.97 0-4.687 4.686-4.687 12.284 0 16.97 4.686 4.687 12.284 4.687 16.97 0z" fill="#EB0029"/><path d="M20.456 3.485C15.77-1.2 8.172-1.2 3.486 3.485c-4.687 4.687-4.687 12.285 0 16.97l16.97-16.97z" fill="#FF3155"/><path d="M12 22c5.523 0 10-4.477 10-10S17.523 2 12 2 2 6.477 2 12s4.477 10 10 10zm0 1C5.925 23 1 18.075 1 12S5.925 1 12 1s11 4.925 11 11-4.925 11-11 11z" fill="#fff"/><path d="M16.572 7.946L6 6l5.564 14 7.752-9.445-2.744-2.61zm-.17.857l1.617 1.537-4.423.8 2.806-2.337zm-3.766 2.178L7.973 7.114l7.62 1.402-2.957 2.465zm-.333.684l-.76 6.284L7.444 7.634l4.86 4.03zm.704.333l4.898-.887-5.618 6.845.72-5.958z" fill="#fff"/></g><defs><clipPath id="ic_coin_trx-clip0"><path fill="#fff" d="M0 0h24v24H0z"/></clipPath></defs></svg><svg width="24" height="24" y="288"><g fill="none" fill-rule="evenodd"><circle fill="#0C87F2" transform="rotate(-45 12 12)" cx="12" cy="12" r="12"/><path d="M20.456 3.485C15.77-1.2 8.172-1.2 3.486 3.485c-4.687 4.687-4.687 12.285 0 16.97l16.97-16.97z" fill="#319BF7"/><path d="M12 22c5.523 0 10-4.477 10-10S17.523 2 12 2 2 6.477 2 12s4.477 10 10 10zm0 1C5.925 23 1 18.075 1 12S5.925 1 12 1s11 4.925 11 11-4.925 11-11 11z" fill="#0A72CC"/><path d="M15.178 13.436a2.663 2.663 0 00-.232-.563 1.906 1.906 0 00-.39-.468 4.64 4.64 0 00-.457-.368 4.408 4.408 0 00-.556-.313 9.815 9.815 0 00-1.157-.49 11.06 11.06 0 01-.962-.401 2.588 2.588 0 01-.412-.229 3.255 3.255 0 01-.291-.243.833.833 0 01-.218-.305.966.966 0 01-.062-.354c0-.334.147-.606.442-.817.294-.21.675-.317 1.142-.317.206 0 .416.028.63.085a3.257 3.257 0 01.979.427c.135.086.23.15.287.195.057.044.093.074.107.088.064.05.13.067.199.052.074-.005.13-.045.17-.118l.597-1.076c.058-.098.046-.191-.037-.28a2.424 2.424 0 00-.111-.102c-.044-.04-.14-.11-.288-.214a3.591 3.591 0 00-.467-.276 4.742 4.742 0 00-1.455-.417V5.636a.231.231 0 00-.066-.17.228.228 0 00-.17-.066h-.994a.227.227 0 00-.166.07.225.225 0 00-.07.166v1.326c-.77.147-1.397.476-1.878.987-.48.51-.722 1.104-.722 1.782 0 .201.021.393.063.575.041.18.093.345.154.49.061.144.149.287.262.427.113.14.22.26.32.36.1.101.232.205.394.313.162.108.3.195.416.262.115.066.269.142.46.228.192.086.343.151.454.195l.453.184c.265.103.461.183.589.24.128.056.29.135.486.235a2 2 0 01.431.277c.091.083.173.186.247.309.074.123.11.253.11.39 0 .389-.15.688-.453.9a1.787 1.787 0 01-1.05.316c-.18 0-.363-.02-.544-.059-.639-.128-1.235-.434-1.79-.92l-.015-.015a.182.182 0 00-.177-.066c-.079.01-.135.039-.17.088l-.758.994c-.074.099-.069.2.014.303.025.029.068.073.13.132.061.059.175.151.342.277.167.125.349.243.545.353.197.11.446.22.748.328.302.108.615.184.939.228v1.29c0 .063.023.119.07.165.046.047.102.07.166.07h.994a.23.23 0 00.17-.066.228.228 0 00.066-.17v-1.289c.78-.127 1.415-.463 1.904-1.005.488-.543.733-1.19.733-1.941 0-.246-.033-.477-.097-.693h.002z" fill="#FFF" fill-rule="nonzero"/></g></svg><svg width="24" height="24" fill="none" y="312"><g clip-path="url(#ic_coin_xlm-clip0)"><path d="M12 24c6.627 0 12-5.373 12-12S18.627 0 12 0 0 5.373 0 12s5.373 12 12 12z" fill="#E1E8F2"/><path fill-rule="evenodd" clip-rule="evenodd" d="M3.515 20.485l16.97-16.97A11.963 11.963 0 0012 0C5.373 0 0 5.373 0 12c0 3.314 1.343 6.314 3.515 8.485z" fill="#fff"/><path d="M17.383 7.31l-1.806.921-8.722 4.442a5.196 5.196 0 017.685-5.208l1.034-.526.154-.079a6.346 6.346 0 00-10.056 5.62 1.154 1.154 0 01-.627 1.115l-.545.278v1.297l1.605-.818.52-.265.512-.261L16.33 9.14l1.034-.526L19.5 7.527V6.23l-2.117 1.08zM19.5 8.824L7.66 14.853l-1.034.527L4.5 16.463v1.296l2.111-1.076 1.807-.92 8.73-4.449a5.197 5.197 0 01-7.692 5.212l-.064.033-1.12.571a6.345 6.345 0 0010.056-5.62 1.156 1.156 0 01.626-1.116l.546-.278V8.824z" fill="#000"/></g><defs><clipPath id="ic_coin_xlm-clip0"><path fill="#fff" d="M0 0h24v24H0z"/></clipPath></defs></svg><svg width="24" height="24" fill="none" y="336"><circle cx="12" cy="12" r="12" fill="#272727"/><path fill-rule="evenodd" clip-rule="evenodd" d="M20.485 3.515l-16.97 16.97A11.963 11.963 0 010 12C0 5.373 5.373 0 12 0c3.314 0 6.314 1.343 8.485 3.515z" fill="#404040"/><path d="M16.95 6h2.024l-4.213 4.37a3.807 3.807 0 01-5.522 0L5.026 6h2.025l3.2 3.32a2.41 2.41 0 003.498 0l3.2-3.32zM7.025 18.151H5l4.239-4.397a3.807 3.807 0 015.522 0L19 18.151h-2.025l-3.226-3.346a2.41 2.41 0 00-3.498 0L7.025 18.15z" fill="#fff"/></svg><svg width="24" height="24" y="360"><g fill="none" fill-rule="evenodd"><circle fill="#FAB915" cx="12" cy="12" r="12"/><path d="M20.456 3.485C15.77-1.2 8.172-1.2 3.486 3.485c-4.687 4.687-4.687 12.285 0 16.97l16.97-16.97z" fill="#FFC940"/><path d="M11.638 14.538h4.437v2.212h-2.73c.045.631.068 1.218.113 1.85H11.16v-1.828H8.43c0-.722-.091-1.444.045-2.121.068-.361.478-.677.728-.993a307 307 0 012.617-3.023c.341-.384.682-.745 1.07-1.173H8.634V7.25h2.525V5.4h2.207v1.805h2.753c0 .745.09 1.466-.045 2.143-.069.362-.478.677-.751.993a307 307 0 01-2.617 3.024c-.342.406-.683.767-1.07 1.173h.001z" fill="#0F141F" fill-rule="nonzero"/><path d="M12 22c5.523 0 10-4.477 10-10S17.523 2 12 2 2 6.477 2 12s4.477 10 10 10zm0 2C5.373 24 0 18.627 0 12S5.373 0 12 0s12 5.373 12 12-5.373 12-12 12z" fill-opacity=".7" fill="#000" fill-rule="nonzero"/></g></svg><svg width="24" height="24" y="384" fill="none" xmlns="http://www.w3.org/2000/svg"><g clip-path="url(#clip0)"><path d="M20.485 20.485c4.687-4.686 4.687-12.284 0-16.97-4.686-4.687-12.284-4.687-16.97 0-4.687 4.686-4.687 12.284 0 16.97 4.686 4.687 12.284 4.687 16.97 0z" fill="#EDF2FA"/><path d="M20.456 3.485C15.77-1.2 8.172-1.2 3.486 3.485c-4.687 4.687-4.687 12.285 0 16.97l16.97-16.97z" fill="#fff"/><g clip-path="url(#clip1)" fill="#60A1F8"><path d="M16.452 16.744a6.708 6.708 0 11-9.487-9.488l9.487 9.488z"/><path d="M8.208 8.5L5 5.292V12l3.208-3.5zm8.827-1.244a6.708 6.708 0 010 9.488L7.548 7.256a6.708 6.708 0 019.487 0z"/><path d="M19 18.708V12l-3.792 2.917L19 18.708z"/><path d="M17.035 7.256a6.708 6.708 0 010 9.488L7.548 7.256a6.708 6.708 0 019.487 0z"/><path d="M19 18.708V12l-3.792 2.917L19 18.708z"/></g></g><defs><clipPath id="clip0"><path fill="#fff" d="M0 0h24v24H0z"/></clipPath><clipPath id="clip1"><path fill="#fff" transform="translate(5 5)" d="M0 0h14v14H0z"/></clipPath></defs></svg><svg width="24" height="24" y="408" fill="none" xmlns="http://www.w3.org/2000/svg"><g clip-path="url(#clip0)"><path d="M20.485 20.485c4.687-4.686 4.687-12.284 0-16.97-4.686-4.687-12.284-4.687-16.97 0-4.687 4.686-4.687 12.284 0 16.97 4.686 4.687 12.284 4.687 16.97 0z" fill="#EDF2FA"/><path d="M20.456 3.485C15.77-1.2 8.172-1.2 3.486 3.485c-4.687 4.687-4.687 12.285 0 16.97l16.97-16.97z" fill="#fff"/><path fill-rule="evenodd" clip-rule="evenodd" d="M8.03 5.625l9.97 9.97v-5.47a6 6 0 00-9.97-4.5zm10.72 4.496V16.5a.375.375 0 01-.64.265l-1.867-1.867-9.016-9.016a.375.375 0 010-.53 6.75 6.75 0 0111.523 4.769z" fill="#60A1F8"/><path fill-rule="evenodd" clip-rule="evenodd" d="M5.482 3.404a.375.375 0 01.408.08L9.265 6.86l.003.002 7.505 7.506a.375.375 0 010 .53 6.75 6.75 0 01-11.523-4.79V3.75c0-.152.091-.288.232-.346zm3.25 3.984L6 4.655v5.455a6 6 0 009.97 4.515L8.734 7.39l-.003-.002z" fill="#60A1F8"/><path d="M18 17.625a.375.375 0 01.75 0V19.5a.375.375 0 01-.75 0v-1.875zM11.625 18a.375.375 0 01.75 0v2.25a.375.375 0 01-.75 0V18zM5.25 15.375a.375.375 0 01.75 0v2.25a.375.375 0 01-.75 0v-2.25z" fill="#60A1F8"/></g><defs><clipPath id="clip0"><path fill="#fff" d="M0 0h24v24H0z"/></clipPath></defs></svg><svg width="24" height="24" y="432"><path fill-rule="evenodd" clip-rule="evenodd" d="M12 24c6.627 0 12-5.373 12-12S18.627 0 12 0 0 5.373 0 12s5.373 12 12 12z" fill="#3987C6"/><path fill-rule="evenodd" clip-rule="evenodd" d="M20.485 3.515c-4.686-4.687-12.284-4.687-16.97 0-4.687 4.686-4.687 12.284 0 16.97l16.97-16.97z" fill="#5099D4"/><path fill-rule="evenodd" clip-rule="evenodd" d="M1 12c0 6.075 4.925 11 11 11s11-4.925 11-11S18.075 1 12 1 1 5.925 1 12zm21 0c0 5.523-4.477 10-10 10S2 17.523 2 12 6.477 2 12 2s10 4.477 10 10z" fill="#fff"/><path fill-rule="evenodd" clip-rule="evenodd" d="M5.928 9.354a1.51 1.51 0 011.295-2.286h9.594a1.51 1.51 0 011.297 2.285L12.03 19.527 5.928 9.354zM7.223 7.74a.839.839 0 00-.72 1.27l5.19 8.653V7.74h-4.47zm5.142 0v9.92l5.173-8.65a.839.839 0 00-.72-1.27h-4.453z" fill="#fff" stroke="#fff" stroke-width=".5"/></svg><svg width="24" height="24" y="456" fill="none" xmlns="http://www.w3.org/2000/svg"><g clip-path="url(#clip0)"><path d="M20.485 20.485c4.687-4.686 4.687-12.284 0-16.97-4.686-4.687-12.284-4.687-16.97 0-4.687 4.686-4.687 12.284 0 16.97 4.686 4.687 12.284 4.687 16.97 0z" fill="#F7F8FA"/><path d="M20.456 3.485C15.77-1.2 8.172-1.2 3.486 3.485c-4.687 4.687-4.687 12.285 0 16.97l16.97-16.97z" fill="#fff"/><path d="M11.78 3.798c.392-.2.87.265.662.648-.121.313-.58.396-.815.158-.248-.229-.167-.681.152-.806zm-4.22.446c.238-.096.54.117.515.372.026.276-.32.479-.562.348-.322-.122-.285-.634.047-.72zm8.642.728c-.373-.045-.432-.618-.073-.733.278-.133.533.116.574.374-.058.22-.247.422-.501.359zM8.52 6.002c.398-.247.967.12.905.574-.02.458-.641.723-.991.413-.339-.243-.287-.8.086-.987zm6.082.262c.178-.449.898-.462 1.1-.026.2.34-.046.761-.402.877-.472.086-.92-.414-.698-.851zm-3.331.825c-.004-.385.355-.673.729-.699.248.049.519.152.625.398.199.338.023.804-.336.959-.164.09-.358.056-.537.046-.272-.131-.502-.389-.481-.704zm-6.275.562c.364-.22.855.18.717.568-.076.335-.536.471-.798.257-.28-.2-.236-.682.08-.825zm13.475 0c.309-.235.818.034.782.416.02.348-.42.61-.727.431-.337-.149-.372-.657-.055-.848zm-5.435.692a1.236 1.236 0 011.405.48c.383.544.18 1.373-.415 1.685-.616.369-1.516.056-1.743-.618-.259-.603.118-1.358.753-1.547zm-2.99.06c.565-.261 1.325-.042 1.598.523.32.551.072 1.318-.502 1.602-.574.32-1.385.077-1.663-.514-.312-.572-.035-1.348.567-1.611zM7.052 9.405c.043-.356.386-.588.733-.612a.799.799 0 01.712.697c-.025.366-.314.724-.71.722-.436.037-.818-.388-.735-.807zm8.843-.535c.447-.255 1.069.116 1.049.62.03.533-.657.909-1.103.596-.463-.26-.427-.994.054-1.216zm-7.066 1.88c.524-.141 1.122.1 1.379.572a1.173 1.173 0 01-.27 1.48c-.56.51-1.594.305-1.892-.39-.342-.639.074-1.494.783-1.662zm5.671-.003c.509-.142 1.107.05 1.38.504.362.519.189 1.293-.35 1.628-.563.388-1.437.184-1.747-.423-.376-.629.002-1.517.717-1.709zm-9.037.592c.452-.167.953.322.77.76-.112.4-.687.548-.984.253-.348-.277-.22-.892.214-1.013zm12.254.637a.683.683 0 01.645-.712c.31.049.61.293.586.623.028.436-.508.732-.887.527-.178-.088-.27-.266-.344-.438zM3.24 11.555c.272-.116.609.114.547.41-.015.335-.52.464-.705.184-.164-.194-.066-.494.158-.594zm17.15-.007c.19-.133.498-.037.574.182.129.239-.107.567-.382.526-.387.035-.512-.541-.193-.708zm-10.084 1.608c.716-.183 1.486.402 1.49 1.123.047.73-.711 1.376-1.444 1.208-.566-.09-1.01-.624-.992-1.184-.001-.536.412-1.034.947-1.147zm2.835-.002c.726-.199 1.518.396 1.507 1.134.038.716-.696 1.34-1.413 1.199-.675-.086-1.173-.812-.985-1.453.095-.428.46-.775.89-.88zm-5.465.444c.503-.084.974.465.77.933-.149.498-.889.633-1.216.226-.384-.39-.097-1.105.446-1.159zm8.312.022c.448-.184.998.196.964.672.018.525-.661.886-1.1.58-.496-.274-.406-1.083.136-1.252zm2.323 2.282c-.175-.32.144-.745.507-.686.18-.003.307.137.423.254.024.19.064.416-.098.562-.218.271-.713.194-.832-.13zm-13.317-.596c.34-.222.828.108.752.497-.04.344-.483.54-.774.345-.313-.177-.301-.681.022-.842zm6.707.719c.444-.192 1.01.187.969.666.033.53-.668.897-1.102.579-.483-.274-.402-1.077.133-1.245zm-3.106.71c.378-.195.886.141.852.556.011.34-.328.631-.671.58-.285-.005-.47-.255-.561-.492.004-.259.113-.547.38-.644zm6.292.006c.39-.236.942.102.906.546.01.464-.616.76-.978.456-.35-.239-.308-.813.072-1.002zm1.094 2.648c-.173-.256.03-.565.312-.624.226.045.465.212.418.468-.033.348-.552.454-.73.156zm-8.686-.222c.07-.204.236-.406.48-.353.357.025.463.55.15.713-.28.185-.605-.069-.63-.36zm4.19.233c.069-.3.466-.447.729-.287.173.072.223.262.268.423a8.355 8.355 0 00-.066.252c-.107.125-.245.25-.424.245-.332.038-.631-.33-.506-.633z" fill="#396CCC"/></g><defs><clipPath id="clip0"><path fill="#fff" d="M0 0h24v24H0z"/></clipPath></defs></svg><svg width="24" height="24" y="480" fill="none" xmlns="http://www.w3.org/2000/svg"><path fill-rule="evenodd" clip-rule="evenodd" d="M12 24c6.627 0 12-5.373 12-12S18.627 0 12 0 0 5.373 0 12s5.373 12 12 12z" fill="#fff"/><path d="M6 8.275v8.667L11.751 19v-8.775L18 7.95 12.304 6 6 8.275z" fill="#03E298"/><path d="M12.193 10.55v4.658L18 17.267v-8.83l-5.807 2.113z" fill="#00AF92"/><path fill-rule="evenodd" clip-rule="evenodd" d="M12 22c5.523 0 10-4.477 10-10S17.523 2 12 2 2 6.477 2 12s4.477 10 10 10zm0 1C5.925 23 1 18.075 1 12S5.925 1 12 1s11 4.925 11 11-4.925 11-11 11z" fill="#03E298"/></svg><svg width="24" height="24" y="504" fill="none" xmlns="http://www.w3.org/2000/svg"><path fill-rule="evenodd" clip-rule="evenodd" d="M12 24c6.627 0 12-5.373 12-12S18.627 0 12 0 0 5.373 0 12s5.373 12 12 12z" fill="#fff"/><path fill-rule="evenodd" clip-rule="evenodd" d="M12 22c5.523 0 10-4.477 10-10S17.523 2 12 2 2 6.477 2 12s4.477 10 10 10zm0 1C5.925 23 1 18.075 1 12S5.925 1 12 1s11 4.925 11 11-4.925 11-11 11z" fill="#06DA93"/><path d="M12.344 5.906l-.034-.012-.033.012-6.31 2.243-.067.024v8.708l.067.023 6.292 2.19.133.047v-4.052l5.574 2.003.134.048v-.143l-.03-9.035-.001-.07-.067-.024-5.658-1.962zm-.671 4.015l-.066.024v8.108L6.685 16.34V8.71l5.629-2.001 4.21 1.46-4.851 1.752zm5.614-1.209l.025 7.327-4.92-1.767v-3.793l4.895-1.767z" fill="#06DA93" stroke="#06DA93" stroke-width=".2" stroke-miterlimit="10"/></svg><svg width="24" height="24" y="528" fill="none" xmlns="http://www.w3.org/2000/svg"><path fill-rule="evenodd" clip-rule="evenodd" d="M20.515 20.515c4.686-4.687 4.686-12.285 0-16.97-4.687-4.687-12.285-4.687-16.971 0-4.686 4.685-4.686 12.283 0 16.97 4.686 4.686 12.284 4.686 16.97 0z" fill="#1B1E36"/><path fill-rule="evenodd" clip-rule="evenodd" d="M20.485 3.515c-4.686-4.687-12.284-4.687-16.97 0-4.687 4.686-4.687 12.284 0 16.97l16.97-16.97z" fill="#2E3148"/><path fill-rule="evenodd" clip-rule="evenodd" d="M1.03 12.03c0 6.075 4.924 11 11 11 6.074 0 11-4.925 11-11 0-6.076-4.926-11-11-11-6.076 0-11 4.924-11 11zm21 0c0 5.522-4.478 10-10 10-5.523 0-10-4.478-10-10 0-5.523 4.476-10 10-10 5.522 0 10 4.477 10 10z" fill="#0C0E20"/><path d="M12.05 3.305c-1.08 0-1.955 3.915-1.955 8.745 0 4.83.875 8.745 1.954 8.745 1.08 0 1.955-3.916 1.955-8.745 0-4.83-.875-8.745-1.954-8.745zm.134 16.996c-.123.165-.246.041-.246.041-.498-.576-.746-1.646-.746-1.646-.87-2.798-.663-8.807-.663-8.807.409-4.77 1.153-5.896 1.405-6.146a.155.155 0 01.198-.016c.367.26.675 1.348.675 1.348.91 3.374.827 6.543.827 6.543.082 2.757-.456 5.843-.456 5.843-.414 2.346-.994 2.84-.994 2.84z" fill="#fff"/><path d="M19.636 7.698c-.538-.936-4.369.253-8.56 2.656-4.19 2.404-7.148 5.112-6.61 6.048.536.936 4.368-.253 8.559-2.657 4.19-2.403 7.148-5.11 6.61-6.047zM4.96 16.273c-.206-.026-.16-.195-.16-.195.253-.718 1.056-1.466 1.056-1.466 1.996-2.147 7.31-4.957 7.31-4.957 4.34-2.02 5.689-1.934 6.03-1.84a.154.154 0 01.113.164c-.041.448-.833 1.256-.833 1.256-2.473 2.47-5.263 3.975-5.263 3.975-2.35 1.444-5.296 2.513-5.296 2.513-2.24.807-2.957.55-2.957.55z" fill="#fff"/><path d="M19.616 16.433c.542-.934-2.407-3.655-6.584-6.076s-8.007-3.625-8.548-2.69c-.541.936 2.407 3.655 6.586 6.076 4.18 2.421 8.005 3.626 8.546 2.69zM4.843 8.028c-.08-.19.089-.235.089-.235.747-.141 1.798.18 1.798.18 2.857.65 7.951 3.842 7.951 3.842 3.923 2.745 4.525 3.954 4.615 4.297a.154.154 0 01-.086.18c-.409.187-1.504-.092-1.504-.092-3.377-.906-6.077-2.564-6.077-2.564-2.427-1.309-4.826-3.323-4.826-3.323C4.98 8.778 4.843 8.03 4.843 8.03v-.002z" fill="#fff"/><path d="M12.03 13.058a1.029 1.029 0 100-2.058 1.029 1.029 0 000 2.058zm4.218-4.362c.33 0 .597-.276.597-.617a.607.607 0 00-.597-.617.607.607 0 00-.597.617c0 .34.268.617.597.617zm-9.796 2.099c.33 0 .597-.277.597-.618a.607.607 0 00-.597-.617.607.607 0 00-.597.617c0 .341.268.618.597.618zm4.363 7.572c.33 0 .597-.277.597-.617a.607.607 0 00-.597-.618.607.607 0 00-.596.618c0 .34.267.617.596.617z" fill="#fff"/></svg><svg width="24" height="24" y="552" fill="none" xmlns="http://www.w3.org/2000/svg"><g clip-path="url(#clip0)"><path fill-rule="evenodd" clip-rule="evenodd" d="M12 24c6.627 0 12-5.373 12-12S18.627 0 12 0 0 5.373 0 12s5.373 12 12 12z" fill="#fff"/><path fill-rule="evenodd" clip-rule="evenodd" d="M12 22c5.523 0 10-4.477 10-10S17.523 2 12 2 2 6.477 2 12s4.477 10 10 10zm0 1C5.925 23 1 18.075 1 12S5.925 1 12 1s11 4.925 11 11-4.925 11-11 11z" fill="#FF5000"/><path d="M19 17l-6.966-3.989L5 17.017 19 17z" fill="#662D91"/><path d="M12.035 4.984l-.002 8.027L19 17 12.035 4.984z" fill="#9E1F63"/><path d="M5 17.017l7.034-4.006.002-8.027L5 17.017z" fill="#FF5000"/><path d="M12.02 9.853l-2.876 4.804h5.764L12.02 9.853v0z" fill="#fff" stroke="#FF5000" stroke-width=".175" stroke-miterlimit="10"/></g><defs><clipPath id="clip0"><path fill="#fff" d="M0 0h24v24H0z"/></clipPath></defs></svg><svg width="24" height="24" y="576" fill="none" xmlns="http://www.w3.org/2000/svg"><path fill-rule="evenodd" clip-rule="evenodd" d="M20.515 20.515c4.686-4.687 4.686-12.285 0-16.97-4.687-4.687-12.285-4.687-16.971 0-4.686 4.685-4.686 12.283 0 16.97 4.686 4.686 12.284 4.686 16.97 0z" fill="#2C7DF7"/><path fill-rule="evenodd" clip-rule="evenodd" d="M20.485 3.515c-4.686-4.687-12.284-4.687-16.97 0-4.687 4.686-4.687 12.284 0 16.97l16.97-16.97z" fill="#579AFF"/><path fill-rule="evenodd" clip-rule="evenodd" d="M12.03 22.03c5.522 0 10-4.478 10-10 0-5.523-4.478-10-10-10-5.523 0-10 4.477-10 10 0 5.522 4.476 10 10 10zm0 1c-6.076 0-11-4.925-11-11 0-6.076 4.924-11 11-11 6.074 0 11 4.924 11 11 0 6.075-4.926 11-11 11z" fill="#1163DD"/><path d="M13.196 18.03c-.928 0-1.605-.224-2.031-.67a2.07 2.07 0 01-.638-1.445.957.957 0 01.112-.478.825.825 0 01.305-.305 1.062 1.062 0 01.948 0 .812.812 0 01.303.305c.08.146.12.311.116.478a.911.911 0 01-.163.558.757.757 0 01-.386.283c.153.194.368.328.61.38.27.078.55.118.83.12a1.85 1.85 0 001.046-.313c.321-.227.56-.551.683-.925.155-.444.23-.912.223-1.383.013-.49-.07-.979-.243-1.438a1.775 1.775 0 00-.705-.894 1.874 1.874 0 00-1.016-.29 1.936 1.936 0 00-.88.298l-.652.327v-.327L14.59 8.38h-4.063v4.08c-.011.295.067.586.224.836a.77.77 0 00.682.327c.245-.005.48-.089.674-.238.22-.16.41-.357.565-.581a.203.203 0 01.073-.098.15.15 0 01.099-.036c.07.006.137.035.19.081a.406.406 0 01.104.276c-.008.069-.02.137-.037.204-.144.349-.386.65-.696.865-.289.195-.63.298-.978.296-.88 0-1.489-.173-1.828-.52a1.947 1.947 0 01-.503-1.421V8.38H7.029v-.76h2.076V5.893l-.475-.476v-.388h1.38l.517.269V7.62l5.367-.016.534.536-3.29 3.307c.198-.08.407-.13.62-.15.423.018.835.136 1.204.343a2.47 2.47 0 011.036.924c.223.34.382.718.467 1.116.07.313.107.633.111.954a3.993 3.993 0 01-.406 1.77 2.594 2.594 0 01-1.219 1.218 3.945 3.945 0 01-1.755.406z" fill="#fff"/></svg><svg width="24" height="24" y="600" fill="none" xmlns="http://www.w3.org/2000/svg"><g clip-path="url(#clip0)"><path d="M20.485 20.485c4.687-4.686 4.687-12.284 0-16.97-4.686-4.687-12.284-4.687-16.97 0-4.687 4.686-4.687 12.284 0 16.97 4.686 4.687 12.284 4.687 16.97 0z" fill="#fff"/><path d="M12 21.09a9.09 9.09 0 100-18.18 9.09 9.09 0 000 18.18zm0 .91C6.477 22 2 17.523 2 12S6.477 2 12 2s10 4.477 10 10-4.477 10-10 10z" fill="#FF5847" stroke="#FF5847" stroke-width="1.5"/><path d="M16.572 7.946L6 6l5.564 14 7.752-9.445-2.744-2.61zm-.17.857l1.617 1.537-4.423.8 2.806-2.337zm-3.766 2.178L7.973 7.114l7.62 1.402-2.957 2.465zm-.333.684l-.76 6.284L7.444 7.634l4.86 4.03zm.704.333l4.898-.887-5.618 6.845.72-5.958z" fill="#fff"/><path fill-rule="evenodd" clip-rule="evenodd" d="M6.088 10.914l5.137-4.88a1.5 1.5 0 012.12.053l4.881 5.137a1.5 1.5 0 01-.054 2.12l-5.136 4.882a1.5 1.5 0 01-2.121-.054l-4.881-5.137a1.5 1.5 0 01.054-2.12zM9 12.097L12.053 9l3.097 3.053-3.053 3.097L9 12.097z" fill="#FF5847"/></g><defs><clipPath id="clip0"><path fill="#fff" d="M0 0h24v24H0z"/></clipPath></defs></svg><svg width="24" height="24" y="624" fill="none" xmlns="http://www.w3.org/2000/svg"><g clip-path="url(#clip0)"><path fill-rule="evenodd" clip-rule="evenodd" d="M20.485 20.485c4.686-4.686 4.686-12.284 0-16.97-4.686-4.687-12.284-4.687-16.97 0-4.687 4.686-4.687 12.284 0 16.97 4.686 4.687 12.284 4.687 16.97 0z" fill="#2B6DEF"/><path d="M6 14.875L8 16l2-1.125V12.25l2 1.125 2-.75v2.25L16 16l2-1.125v-6.75L16 7l-2 1.125v2.25L8 7 6 8.125v6.75z" fill="#fff"/><path d="M12 22c5.523 0 10-4.477 10-10S17.523 2 12 2 2 6.477 2 12s4.477 10 10 10zm0 1C5.925 23 1 18.075 1 12S5.925 1 12 1s11 4.925 11 11-4.925 11-11 11z" fill="#fff"/></g><defs><clipPath id="clip0"><path fill="#fff" d="M0 0h24v24H0z"/></clipPath></defs></svg><svg width="24" height="24" y="648" fill="none" xmlns="http://www.w3.org/2000/svg"><g clip-path="url(#clip0)"><path fill-rule="evenodd" clip-rule="evenodd" d="M20.485 20.485c4.686-4.686 4.686-12.284 0-16.97-4.686-4.687-12.284-4.687-16.97 0-4.687 4.686-4.687 12.284 0 16.97 4.686 4.687 12.284 4.687 16.97 0z" fill="#fff"/><path d="M12 22c5.523 0 10-4.477 10-10S17.523 2 12 2 2 6.477 2 12s4.477 10 10 10zm0 1C5.925 23 1 18.075 1 12S5.925 1 12 1s11 4.925 11 11-4.925 11-11 11z" fill="#2959D9"/><path fill-rule="evenodd" clip-rule="evenodd" d="M12 5L6 8.5v7l6 3.5 6-3.5v-7L12 5zm0 3l-3.5 2v4l3.5 2 3.5-2v-4L12 8z" fill="#2959D9"/></g><defs><clipPath id="clip0"><path fill="#fff" d="M0 0h24v24H0z"/></clipPath></defs></svg><svg width="24" height="24" y="672" fill="none" xmlns="http://www.w3.org/2000/svg"><g clip-path="url(#clip0)"><path fill-rule="evenodd" clip-rule="evenodd" d="M20.456 20.485c4.686-4.686 4.686-12.284 0-16.97-4.686-4.687-12.284-4.687-16.97 0-4.687 4.686-4.687 12.284 0 16.97 4.686 4.687 12.284 4.687 16.97 0z" fill="#13C7A2"/><path d="M12 22c5.523 0 10-4.477 10-10S17.523 2 12 2 2 6.477 2 12s4.477 10 10 10zm0 1C5.925 23 1 18.075 1 12S5.925 1 12 1s11 4.925 11 11-4.925 11-11 11z" fill="#fff"/><g clip-path="url(#clip1)" fill-rule="evenodd" clip-rule="evenodd" fill="#fff"><path d="M6.868 10.233v4.485H6v-5.21c0-.418.477-.657.811-.405l4.125 3.104a.507.507 0 01.202.405v2.106h-.868v-1.926l-3.402-2.56zm9.492 0v4.485h.868v-5.21a.507.507 0 00-.811-.405l-4.125 3.104a.507.507 0 00-.202.405v2.106h.868v-1.926l3.402-2.56z"/></g></g><defs><clipPath id="clip0"><path fill="#fff" d="M0 0h24v24H0z"/></clipPath><clipPath id="clip1"><path fill="#fff" d="M6 9h11.4v6H6z"/></clipPath></defs></svg><svg width="24" height="24" y="696" fill="none" xmlns="http://www.w3.org/2000/svg"><g clip-path="url(#clip0)"><path fill-rule="evenodd" clip-rule="evenodd" d="M20.485 20.485c4.686-4.686 4.686-12.284 0-16.97-4.686-4.687-12.284-4.687-16.97 0-4.687 4.686-4.687 12.284 0 16.97 4.686 4.687 12.284 4.687 16.97 0z" fill="#553580"/><path d="M12 22c5.523 0 10-4.477 10-10S17.523 2 12 2 2 6.477 2 12s4.477 10 10 10zm0 1C5.925 23 1 18.075 1 12S5.925 1 12 1s11 4.925 11 11-4.925 11-11 11z" fill="#fff"/><path d="M12.002 19.173c-.133-.056-.255-.1-.366-.166-1.76-1.052-3.51-2.093-5.27-3.145-.398-.243-.465-.476-.232-.897 1.782-3.2 3.565-6.388 5.336-9.588.122-.221.266-.388.532-.376.266 0 .41.177.531.398 1.772 3.189 3.554 6.366 5.326 9.555.244.432.177.676-.244.92-1.738 1.04-3.476 2.08-5.214 3.11-.122.078-.255.122-.4.189zm-.631-3.289c-.41-.243-.808-.487-1.218-.73-.3-.189-.576-.388-.886-.565-.122-.066-.299-.122-.42-.089-.731.2-1.385.576-2.071 1.008 1.683 1.008 3.3 1.97 4.971 2.967 0-.675.011-1.284 0-1.882a1.095 1.095 0 01.388-.897c.177-.155.376-.321.598-.42.598-.277 1.074-.676 1.34-1.33.121.189.22.344.332.499-.277.52-.698.886-1.207 1.162a3.799 3.799 0 00-.665.432c-.11.089-.232.233-.243.355-.022.675-.011 1.35-.011 2.081 1.66-.996 3.277-1.96 4.938-2.956-.653-.332-1.24-.642-1.85-.919-.431-.2-.73-.51-.907-.941a9.167 9.167 0 01-.31-.93c-.222-.864-.753-1.428-1.606-1.683-.1-.022-.188-.055-.299-.078.355-.509.355-.509.875-.265.786.376 1.329.974 1.506 1.827.177.896.576 1.55 1.473 1.86.243.077.453.221.686.332.122.066.255.122.388.177a.192.192 0 01.044-.055c-1.628-2.912-3.244-5.824-4.872-8.736-.033.01-.055.01-.088.022v.332c0 1.04-.023 2.082.01 3.122.023.61-.232 1.019-.708 1.329-.177.11-.365.221-.554.31-.598.299-.985.775-1.129 1.417-.077.354-.055.72-.077 1.074-.554-.166-.554-.166-.51-.753.078-1.018.61-1.738 1.484-2.225.244-.133.498-.255.686-.443a.92.92 0 00.255-.543c.022-1.151.011-2.291.011-3.443 0-.066-.022-.133-.044-.255a1740.522 1740.522 0 01-4.883 8.78c.576-.265 1.074-.498 1.572-.73.421-.2.83-.155 1.218.055.255.133.51.277.72.454.42.365.864.664 1.45.742a9.32 9.32 0 01-.387.531z" fill="#fff"/></g><defs><clipPath id="clip0"><path fill="#fff" d="M0 0h24v24H0z"/></clipPath></defs></svg><svg width="24" height="24" y="720" fill="none" xmlns="http://www.w3.org/2000/svg"><g clip-path="url(#clip0)"><path d="M20.456 20.485c4.686-4.686 4.686-12.284 0-16.97-4.686-4.687-12.284-4.687-16.97 0-4.687 4.686-4.687 12.284 0 16.97 4.686 4.687 12.284 4.687 16.97 0z" fill="#fff"/><path fill-rule="evenodd" clip-rule="evenodd" d="M23 12c0 6.075-4.925 11-11 11S1 18.075 1 12 5.925 1 12 1s11 4.925 11 11zm-11.467 6.86l.152.015h.64l.024-.005a.42.42 0 01.06-.011l.212-.021c.142-.013.283-.026.424-.049 1.669-.267 3.054-1.047 4.168-2.313.045-.05.05-.082.008-.137l-1.242-1.65-.198-.265-.032-.037a1.045 1.045 0 01-.02-.023l-.067.098a4.47 4.47 0 01-1.705 1.494c-.066.034-.106.035-.162-.022-.17-.171-.344-.34-.517-.51l-.174-.169-.416-.404-1.198.895-2.933 2.192.023.017.023.014a6.801 6.801 0 002.576.853c.118.014.236.026.354.038zm.839-13.727a54.725 54.725 0 00-.08-.008h-.59l-.026.005a.664.664 0 01-.065.011c-.088.01-.177.02-.265.028-.184.018-.369.036-.55.07A6.816 6.816 0 007.18 7.11a8.47 8.47 0 00-.305.32l-.15.161L8.27 9.646l.062-.094a4.467 4.467 0 011.732-1.514c.058-.03.094-.025.14.021.227.224.454.445.682.666l.203.199.125.118.038.036 4.199-3.012a.973.973 0 01-.017-.012l-.027-.019a6.823 6.823 0 00-2.765-.875l-.27-.027zM6.037 8.584zm0 0c-.834 1.513-1.11 3.099-.77 4.777.318 1.568 1.108 2.861 2.327 3.91l2.038-1.528-.008-.017c-.005-.008-.006-.011-.009-.013a4.459 4.459 0 01-1.579-1.775c-.027-.055-.025-.09.02-.134.118-.117.233-.236.349-.355l.123-.127.63-.646-3.121-4.092zm9.433 2.135l-.574.596 3.077 4.064c.765-1.285 1.158-3.11.717-4.955-.354-1.478-1.125-2.703-2.285-3.696l-2.05 1.537.037.026.048.035a4.46 4.46 0 011.531 1.748c.03.06.031.098-.02.15-.121.119-.24.242-.357.365l-.124.13z" fill="#302C2C"/></g><defs><clipPath id="clip0"><path fill="#fff" d="M0 0h24v24H0z"/></clipPath></defs></svg><svg width="24" height="24" y="744" fill="none" xmlns="http://www.w3.org/2000/svg"><g clip-path="url(#clip0)"><path fill-rule="evenodd" clip-rule="evenodd" d="M20.485 20.485c4.686-4.686 4.686-12.284 0-16.97-4.686-4.687-12.284-4.687-16.97 0-4.687 4.686-4.687 12.284 0 16.97 4.686 4.687 12.284 4.687 16.97 0z" fill="#001D57"/><path d="M12 22c5.523 0 10-4.477 10-10S17.523 2 12 2 2 6.477 2 12s4.477 10 10 10zm0 1C5.925 23 1 18.075 1 12S5.925 1 12 1s11 4.925 11 11-4.925 11-11 11z" fill="#fff"/><g clip-path="url(#clip1)"><path d="M11.508 5.93c.547-.011 1.05.087 1.499.393.197.132.36.11.525-.065.36-.383.732-.733 1.104-1.105.132-.153.252-.23.427-.044.153.164.11.285-.033.427-.372.372-.733.766-1.115 1.137-.165.165-.186.285-.066.493.842 1.52.426 3.303-1.258 4.112-.164.077-.339.11-.514.153-.197.044-.284.153-.273.361.01.438.01.875 0 1.302-.011.23.065.339.306.394.908.218 1.542.765 1.947 1.596.383.81.284 2.253-.547 3.118-.7.71-1.936 1.017-2.855.645-1.094-.438-1.772-1.4-1.783-2.56-.01-1.4.744-2.406 2.1-2.778.197-.054.318-.153.318-.372-.011-.492 0-.995-.022-1.487 0-.088-.164-.208-.274-.24-.875-.23-1.52-.755-1.881-1.587-.875-1.903.58-4.003 2.395-3.893zm2.22 10.27c0-1.148-1.006-2.21-2.121-2.21-1.17-.021-2.232 1.018-2.253 2.188-.011 1.16 1.071 2.275 2.187 2.264 1.181-.01 2.198-1.05 2.188-2.242zM9.387 8.631c0 1.258.974 2.275 2.188 2.275 1.126 0 2.165-1.05 2.155-2.21 0-1.093-.81-2.22-2.155-2.198-1.214.033-2.177.941-2.188 2.133z" fill="#fff"/></g></g><defs><clipPath id="clip0"><path fill="#fff" d="M0 0h24v24H0z"/></clipPath><clipPath id="clip1"><path fill="#fff" d="M5 5h14v14H5z"/></clipPath></defs></svg><svg width="24" height="24" y="768" fill="none" xmlns="http://www.w3.org/2000/svg"><g clip-path="url(#clip0)"><path d="M20.456 20.485c4.686-4.686 4.686-12.284 0-16.97-4.686-4.687-12.284-4.687-16.97 0-4.687 4.686-4.687 12.284 0 16.97 4.686 4.687 12.284 4.687 16.97 0z" fill="#fff"/><path fill-rule="evenodd" clip-rule="evenodd" d="M5 5.008l2.74 6.793L5 10.643v2.509l3.937 1.737L5 16.47v2.355l6.831-2.625-1.042 2.625h2.47l1.621-3.744 1.544 3.744h2.509l-2.74-6.793 2.74 1.119v-2.509l-3.86-1.62 3.86-1.545v-2.47L12.14 7.671l1.12-2.663h-2.47l-1.7 3.898-1.543-3.898H5zm7.88 4.751l-3.016 1.233 1.232 3.017 3.018-1.232-1.233-3.018z" fill="url(#paint0_linear)"/></g><defs><linearGradient id="paint0_linear" x1="5.5" y1="4.5" x2="12" y2="15" gradientUnits="userSpaceOnUse"><stop stop-color="#5AC2C3"/><stop offset="1" stop-color="#0785BF"/></linearGradient><clipPath id="clip0"><path fill="#fff" d="M0 0h24v24H0z"/></clipPath></defs></svg><svg width="24" height="24" y="792" fill="none" xmlns="http://www.w3.org/2000/svg"><g clip-path="url(#clip0)"><path fill-rule="evenodd" clip-rule="evenodd" d="M20.456 20.485c4.686-4.686 4.686-12.284 0-16.97-4.686-4.687-12.284-4.687-16.97 0-4.687 4.686-4.687 12.284 0 16.97 4.686 4.687 12.284 4.687 16.97 0z" fill="#1BA7AE"/><path d="M12 22c5.523 0 10-4.477 10-10S17.523 2 12 2 2 6.477 2 12s4.477 10 10 10zm0 1C5.925 23 1 18.075 1 12S5.925 1 12 1s11 4.925 11 11-4.925 11-11 11z" fill="#fff"/><path d="M17.266 15.35a3.587 3.587 0 01-1.848-.508 2.43 2.43 0 01-.507-.382 3.161 3.161 0 01-.734-.992 2.71 2.71 0 01-.177-.483h.962l.583-1.322h-1.57a2.97 2.97 0 01.177-.51c.177-.355.43-.711.734-.991.152-.153.329-.28.507-.382.177-.101.38-.203.582-.28a3.641 3.641 0 011.29-.229h.203L18 8.076a6.614 6.614 0 00-.709-.05c-.582 0-1.139.076-1.696.28a4.397 4.397 0 00-.785.355 7.24 7.24 0 00-.734.484 3.953 3.953 0 00-.658.635 3.892 3.892 0 00-.481.764c-.127.28-.253.559-.304.864v.102l-.026.102v.025H11.47v-.076l-.026-.102v-.102a4.979 4.979 0 00-.304-.865 3.896 3.896 0 00-.48-.762 3.75 3.75 0 00-.634-.636 4.607 4.607 0 00-.734-.483c-.253-.153-.531-.255-.785-.357A6.52 6.52 0 006.71 8c-.228 0-.456.026-.684.05l.532 1.221h.152c.43 0 .86.077 1.265.23.203.076.405.152.583.28.177.101.354.228.506.38.304.28.557.612.734.993.076.178.152.356.177.534h-.987l-.582 1.322H9.95l-.151.458c-.177.356-.43.712-.734.992-.152.152-.33.28-.507.381a3.6 3.6 0 01-1.848.509h-.202L6 16.52a6.5 6.5 0 00.709.051c.582 0 1.139-.076 1.696-.28a4.4 4.4 0 00.785-.355c.253-.153.506-.306.734-.484.228-.178.43-.407.633-.635.177-.23.354-.484.48-.764.128-.28.254-.559.305-.864v-.102l.025-.102h1.165l.025.102v.102c.076.305.178.585.304.864.127.28.304.534.481.764.178.229.406.457.633.635.228.178.481.356.734.484.253.152.532.254.785.356.557.178 1.114.28 1.697.28.228 0 .455-.026.683-.051l-.531-1.221c.024.05-.027.05-.077.05z" fill="#fff"/></g><defs><clipPath id="clip0"><path fill="#fff" d="M0 0h24v24H0z"/></clipPath></defs></svg><svg width="24" height="24" y="816" fill="none" xmlns="http://www.w3.org/2000/svg"><rect width="100%" height="100%"/><g class="currentLayer"><path fill-rule="evenodd" clip-rule="evenodd" d="M12 24c6.628 0 12-5.373 12-12S18.628 0 12 0C5.373 0 0 5.373 0 12s5.373 12 12 12z" fill="#4F9E7E"/><path fill-rule="evenodd" clip-rule="evenodd" d="M20.485 3.515c-4.686-4.687-12.284-4.687-16.97 0-4.687 4.686-4.687 12.284 0 16.97l16.97-16.97z" fill="#53AE94"/><path fill-rule="evenodd" clip-rule="evenodd" d="M1 12c0 6.075 4.925 11 11 11s11-4.925 11-11S18.075 1 12 1 1 5.925 1 12zm21 0c0 5.523-4.477 10-10 10S2 17.523 2 12 6.477 2 12 2s10 4.477 10 10z" fill="#fff"/><path d="M18 12.199c0-.75-2.059-1.375-4.795-1.52V9.486h3.416V7H7.28v2.485h3.416v1.2C8.01 10.84 6 11.458 6 12.2c0 .74 2.01 1.359 4.696 1.513V18h2.509v-4.282c2.736-.144 4.795-.77 4.795-1.52zm-6 .738c-2.937 0-5.317-.45-5.317-1.006 0-.47 1.707-.866 4.013-.975v1.443a23.579 23.579 0 002.51.006V10.95c2.355.103 4.112.503 4.112.98 0 .556-2.381 1.006-5.318 1.006z" fill="#fff"/></g></svg></svg>