<?xml version="1.0" encoding="UTF-8" standalone="no"?>
<svg
   xmlns:dc="http://purl.org/dc/elements/1.1/"
   xmlns:cc="http://creativecommons.org/ns#"
   xmlns:rdf="http://www.w3.org/1999/02/22-rdf-syntax-ns#"
   xmlns:svg="http://www.w3.org/2000/svg"
   xmlns="http://www.w3.org/2000/svg"
   viewBox="0 0 404.54666 145.58667"
   height="145.58667"
   width="404.54666"
   xml:space="preserve"
   id="svg2"
   version="1.1"><metadata
     id="metadata8"><rdf:RDF><cc:Work
         rdf:about=""><dc:format>image/svg+xml</dc:format><dc:type
           rdf:resource="http://purl.org/dc/dcmitype/StillImage" /></cc:Work></rdf:RDF></metadata><defs
     id="defs6" /><g
     transform="matrix(1.3333333,0,0,-1.3333333,0,145.58667)"
     id="g10"><g
       transform="scale(0.1)"
       id="g12"><path
         id="path14"
         style="fill:#2350a9;fill-opacity:1;fill-rule:nonzero;stroke:none"
         d="m 7.46875,104.18 30.93755,3.125 c 1.8632,-10.43 5.6406,-18.0862 11.3359,-22.9769 5.6914,-4.8984 13.3711,-7.3398 23.0391,-7.3398 10.2421,0 17.957,2.1719 23.1523,6.5234 5.1874,4.3399 7.7894,9.418 7.7894,15.2383 0,3.73 -1.09,6.906 -3.27,9.531 -2.1757,2.617 -5.9803,4.895 -11.41,6.836 -3.7149,1.27 -12.1797,3.555 -25.3907,6.836 -17,4.199 -28.9257,9.375 -35.7812,15.527 -9.6445,8.645 -14.4648,19.18 -14.4648,31.622 0,7.988 2.2734,15.48 6.8164,22.441 4.5468,6.973 11.1015,12.277 19.6562,15.918 8.5547,3.644 18.8867,5.469 30.9844,5.469 19.7617,0 34.6327,-4.344 44.6247,-13.028 9.985,-8.691 15.231,-20.281 15.735,-34.785 l -31.8753,-1.25 c -1.3633,8.106 -4.2852,13.926 -8.7579,17.481 -4.4726,3.554 -11.1835,5.332 -20.1289,5.332 -9.2421,0 -16.4687,-1.895 -21.6914,-5.692 -3.3672,-2.433 -5.0507,-5.695 -5.0507,-9.777 0,-3.731 1.5742,-6.914 4.7226,-9.57 4.0039,-3.36 13.7344,-6.864 29.1953,-10.496 15.4531,-3.645 26.8833,-7.415 34.2933,-11.329 7.402,-3.918 13.199,-9.269 17.386,-16.046 4.184,-6.797 6.282,-15.176 6.282,-25.1567 0,-9.0625 -2.512,-17.5313 -7.528,-25.4336 C 123.051,65.2813 115.957,59.4102 106.785,55.5703 97.6172,51.7305 86.1875,49.8086 72.5,49.8086 52.5781,49.8086 37.2773,54.4297 26.6016,63.6914 15.9219,72.9492 9.54688,86.4492 7.46875,104.18" /><path
         id="path16"
         style="fill:#2350a9;fill-opacity:1;fill-rule:nonzero;stroke:none"
         d="M 168.621,52.6211 V 166.68 h 30.317 V 52.6211 Z m 0,129.6839 v 27.812 h 30.317 v -27.812 h -30.317" /><path
         id="path18"
         style="fill:#2350a9;fill-opacity:1;fill-rule:nonzero;stroke:none"
         d="m 340.406,52.6211 h -30.312 v 58.3359 c 0,12.344 -0.645,20.324 -1.93,23.945 -1.285,3.625 -3.367,6.446 -6.262,8.457 -2.886,2.004 -6.367,3.008 -10.425,3.008 -5.207,0 -9.879,-1.433 -14.016,-4.304 -4.141,-2.872 -6.973,-6.672 -8.508,-11.407 -1.531,-4.738 -2.297,-13.488 -2.297,-26.261 V 52.6211 H 236.344 V 166.68 h 28.125 v -16.758 c 9.949,13.047 22.484,19.57 37.594,19.57 6.66,0 12.742,-1.211 18.253,-3.613 5.512,-2.402 9.684,-5.469 12.516,-9.199 2.828,-3.731 4.797,-7.957 5.906,-12.696 1.11,-4.734 1.668,-11.511 1.668,-20.332 V 52.6211" /><path
         id="path20"
         style="fill:#2350a9;fill-opacity:1;fill-rule:nonzero;stroke:none"
         d="m 401.703,112.109 c 0,-12.1363 2.324,-21.027 6.985,-26.6598 4.652,-5.6406 10.39,-8.4609 17.214,-8.4609 7.317,0 13.496,2.8906 18.547,8.6719 5.043,5.789 7.567,14.3518 7.567,25.6988 0,11.844 -2.414,20.645 -7.25,26.395 -4.832,5.742 -10.942,8.613 -18.328,8.613 -7.18,0 -13.098,-2.82 -17.75,-8.457 -4.661,-5.644 -6.985,-14.238 -6.985,-25.801 z m -27.187,-66.9879 34.375,-3.75 c 0.578,-4.25 1.906,-7.1719 3.992,-8.7695 2.875,-2.2813 7.406,-3.4219 13.586,-3.4219 7.906,0 13.84,1.1797 17.793,3.5508 2.656,1.5703 4.676,4.1211 6.043,7.6211 0.929,2.5195 1.398,7.1289 1.398,13.8672 l 0.094,16.6523 c -8.938,-12.1719 -20.281,-18.25 -34.043,-18.25 -15.344,0 -27.488,6.4805 -36.449,19.4687 -7.028,10.2618 -10.539,23.0391 -10.539,38.3202 0,19.16 4.605,33.789 13.812,43.906 9.211,10.118 20.664,15.176 34.36,15.176 14.121,0 25.769,-6.211 34.953,-18.613 v 15.801 h 28.125 V 64.1484 c 0,-13.4882 -1.114,-23.5586 -3.332,-30.2187 -2.231,-6.6797 -5.348,-11.918 -9.368,-15.7188 -4.019,-3.8007 -9.378,-6.7695 -16.089,-8.92965 -6.707,-2.15234 -15.192,-3.22266 -25.446,-3.22266 -19.367,0 -33.109,3.33985 -41.215,10.01171 -8.105,6.668 -12.156,15.1211 -12.156,25.3789 0,1 0.031,2.2227 0.106,3.6719" /><path
         id="path22"
         style="fill:#2350a9;fill-opacity:1;fill-rule:nonzero;stroke:none"
         d="M 518.316,52.6211 V 210.117 h 30.313 V 52.6211 h -30.313" /><path
         id="path24"
         style="fill:#2350a9;fill-opacity:1;fill-rule:nonzero;stroke:none"
         d="m 654.16,119.18 c -0.215,8.879 -2.484,15.625 -6.812,20.254 -4.325,4.621 -9.582,6.933 -15.782,6.933 -6.628,0 -12.109,-2.441 -16.429,-7.312 -4.324,-4.875 -6.449,-11.504 -6.375,-19.875 z m -1.562,-30.6214 30,-5 c -3.883,-11 -10.008,-19.3789 -18.379,-25.1289 -8.375,-5.75 -18.848,-8.6211 -31.422,-8.6211 -19.906,0 -34.637,6.5 -44.192,19.5117 -7.55,10.4297 -11.32,23.5703 -11.32,39.4687 0,18.965 4.957,33.828 14.867,44.582 9.914,10.75 22.442,16.121 37.598,16.121 17.023,0 30.453,-5.644 40.293,-16.914 9.84,-11.289 14.547,-28.555 14.117,-51.836 h -75.937 c 0.215,-8.9803 2.675,-15.9529 7.379,-20.9529 4.695,-4.9805 10.554,-7.4805 17.578,-7.4805 4.769,0 8.785,1.2734 12.039,3.8398 3.254,2.5625 5.715,6.7032 7.379,12.4102" /><path
         id="path26"
         style="fill:#2350a9;fill-opacity:1;fill-rule:nonzero;stroke:none"
         d="M 783.34,52.6211 V 210.117 h 116.562 v -26.562 h -84.687 v -35 h 78.75 v -26.563 h -78.75 V 79.1797 h 87.812 V 52.6211 H 783.34" /><path
         id="path28"
         style="fill:#2350a9;fill-opacity:1;fill-rule:nonzero;stroke:none"
         d="m 1011.36,52.6211 v 17.0781 c -4.16,-6.0898 -9.64,-10.9297 -16.422,-14.5078 -6.79,-3.5898 -13.954,-5.3828 -21.493,-5.3828 -7.683,0 -14.574,1.6797 -20.675,5.0508 -6.106,3.3711 -10.524,8.1094 -13.254,14.1992 -2.731,6.1133 -4.09,14.5312 -4.09,25.2969 V 166.68 h 30.312 v -52.461 c 0,-16.0549 0.551,-25.8987 1.664,-29.5081 1.114,-3.6406 3.133,-6.5 6.075,-8.6211 2.941,-2.1015 6.664,-3.1601 11.179,-3.1601 5.164,0 9.785,1.4101 13.875,4.2422 4.079,2.8281 6.879,6.3476 8.379,10.5469 1.51,4.1796 2.26,14.4492 2.26,30.7972 v 48.164 h 30.32 V 52.6211 h -28.13" /><path
         id="path30"
         style="fill:#2350a9;fill-opacity:1;fill-rule:nonzero;stroke:none"
         d="m 1106.1,52.6211 h -30.31 V 166.68 h 28.12 v -16.219 c 4.81,7.664 9.13,12.742 12.97,15.262 3.83,2.511 8.19,3.769 13.07,3.769 6.88,0 13.51,-1.914 19.9,-5.722 l -9.22,-26.407 c -5.11,3.293 -9.86,4.942 -14.24,4.942 -4.25,0 -7.85,-1.172 -10.79,-3.496 -2.95,-2.332 -5.28,-6.543 -6.97,-12.637 -1.69,-6.094 -2.53,-18.856 -2.53,-38.2814 V 52.6211" /><path
         id="path32"
         style="fill:#2350a9;fill-opacity:1;fill-rule:nonzero;stroke:none"
         d="m 1193,109.648 c 0,-11.3667 2.69,-20.0582 8.08,-26.0894 5.39,-6.0469 12.04,-9.0703 19.95,-9.0703 7.9,0 14.53,3.0234 19.88,9.0703 5.35,6.0312 8.03,14.8008 8.03,26.3044 0,11.211 -2.68,19.844 -8.03,25.879 -5.35,6.035 -11.98,9.063 -19.88,9.063 -7.91,0 -14.56,-3.028 -19.95,-9.063 -5.39,-6.035 -8.08,-14.734 -8.08,-26.094 z m -30.93,1.622 c 0,10.058 2.47,19.804 7.41,29.218 4.94,9.414 11.95,16.602 21.02,21.563 9.06,4.961 19.18,7.441 30.36,7.441 17.27,0 31.43,-5.625 42.47,-16.875 11.03,-11.25 16.55,-25.469 16.55,-42.644 0,-17.3246 -5.58,-31.6917 -16.72,-43.0746 -11.14,-11.3984 -25.17,-17.0898 -42.08,-17.0898 -10.46,0 -20.45,2.3711 -29.94,7.1016 -9.49,4.75 -16.72,11.6992 -21.66,20.8711 -4.94,9.1679 -7.41,20.3242 -7.41,33.4887" /><path
         id="path34"
         style="fill:#2350a9;fill-opacity:1;fill-rule:nonzero;stroke:none"
         d="m 1410.46,183.555 v -45 h 17.36 c 12.5,0 20.86,0.82 25.08,2.48 4.21,1.66 7.52,4.258 9.91,7.793 2.39,3.535 3.59,7.649 3.59,12.336 0,5.77 -1.68,10.527 -5.04,14.277 -3.36,3.75 -7.61,6.094 -12.75,7.032 -3.79,0.722 -11.4,1.082 -22.83,1.082 z M 1378.58,52.6211 V 210.117 h 51.02 c 19.34,0 31.94,-0.789 37.82,-2.363 9.02,-2.363 16.57,-7.508 22.66,-15.43 6.08,-7.91 9.13,-18.144 9.13,-30.683 0,-9.668 -1.75,-17.793 -5.26,-24.395 -3.51,-6.582 -7.96,-11.766 -13.36,-15.527 -5.4,-3.77 -10.9,-6.25 -16.47,-7.469 -7.59,-1.504 -18.57,-2.258 -32.95,-2.258 h -20.71 V 52.6211 h -31.88" /><path
         id="path36"
         style="fill:#2350a9;fill-opacity:1;fill-rule:nonzero;stroke:none"
         d="m 1594.43,107.305 c -3.87,-1.297 -9.98,-2.84 -18.34,-4.637 -8.36,-1.797 -13.83,-3.5664 -16.4,-5.2852 -3.93,-2.8125 -5.89,-6.3633 -5.89,-10.6836 0,-4.25 1.57,-7.9101 4.71,-11.0078 3.15,-3.0898 7.15,-4.6328 12.01,-4.6328 5.43,0 10.61,1.793 15.55,5.3906 3.63,2.7305 6.03,6.0703 7.18,10.0391 0.78,2.582 1.18,7.5156 1.18,14.7817 z m -40.63,24.687 -27.18,5 c 3.07,11.047 8.38,19.219 15.89,24.531 7.53,5.313 18.72,7.969 33.55,7.969 13.47,0 23.51,-1.601 30.1,-4.785 6.59,-3.203 11.24,-7.254 13.91,-12.168 2.7,-4.91 4.05,-13.934 4.05,-27.07 l -0.32,-35.2893 c 0,-10.0508 0.48,-17.4609 1.45,-22.2305 0.97,-4.7695 2.77,-9.8789 5.43,-15.3281 h -30 c -0.8,1.9687 -1.76,4.8984 -2.91,8.7891 -0.5,1.7617 -0.86,2.9296 -1.07,3.4882 -5.15,-5.0273 -10.66,-8.8086 -16.53,-11.3281 -5.87,-2.5 -12.13,-3.7617 -18.79,-3.7617 -11.74,0 -20.99,3.1914 -27.75,9.582 -6.76,6.3789 -10.14,14.461 -10.14,24.2188 0,6.4492 1.53,12.2109 4.61,17.2696 3.09,5.059 7.4,8.945 12.96,11.633 5.56,2.683 13.56,5.047 24.02,7.058 14.11,2.649 23.9,5.118 29.35,7.422 v 3.047 c 0,5.879 -1.45,10.07 -4.33,12.578 -2.88,2.5 -8.32,3.75 -16.32,3.75 -5.4,0 -9.61,-1.062 -12.63,-3.183 -3.03,-2.129 -5.48,-5.86 -7.35,-11.192" /><path
         id="path38"
         style="fill:#2350a9;fill-opacity:1;fill-rule:nonzero;stroke:none"
         d="m 1645.87,166.68 h 32.19 l 27.35,-80.9808 26.71,80.9808 h 31.25 l -40.19,-109.7816 -7.35,-20.039 c -2.65,-6.6797 -5.18,-11.7774 -7.58,-15.3008 -2.41,-3.5078 -5.17,-6.3594 -8.29,-8.5469 -3.13,-2.1914 -6.96,-3.91014 -11.52,-5.12107 -4.56,-1.23047 -9.7,-1.83204 -15.45,-1.83204 -5.81,0 -11.52,0.60157 -17.12,1.82032 l -2.81,23.65239 c 4.75,-0.9415 9.04,-1.4102 12.85,-1.4102 7.07,0 12.29,2.0898 15.68,6.25 3.39,4.1797 5.97,9.4883 7.78,15.9375 l -43.5,114.3714" /><path
         id="path40"
         style="fill:#2350a9;fill-opacity:1;fill-rule:nonzero;stroke:none"
         d="m 1787.02,166.68 h 27.81 v -15.575 c 9.99,12.254 21.87,18.387 35.67,18.387 7.33,0 13.68,-1.504 19.08,-4.512 5.39,-3.015 9.81,-7.578 13.25,-13.671 5.02,6.093 10.45,10.656 16.25,13.671 5.82,3.008 12.01,4.512 18.61,4.512 8.4,0 15.5,-1.699 21.31,-5.117 5.81,-3.398 10.16,-8.406 13.03,-15.008 2.07,-4.875 3.11,-12.765 3.11,-23.672 V 52.6211 h -30.31 v 65.3279 c 0,11.34 -1.05,18.653 -3.12,21.953 -2.79,4.317 -7.09,6.465 -12.88,6.465 -4.23,0 -8.2,-1.289 -11.92,-3.875 -3.72,-2.59 -6.41,-6.367 -8.05,-11.359 -1.65,-4.981 -2.47,-12.86 -2.47,-23.621 V 52.6211 h -30.31 v 62.6329 c 0,11.133 -0.54,18.301 -1.61,21.535 -1.08,3.231 -2.74,5.633 -4.99,7.215 -2.26,1.574 -5.31,2.363 -9.18,2.363 -4.65,0 -8.84,-1.258 -12.56,-3.769 -3.72,-2.508 -6.39,-6.133 -8,-10.868 -1.61,-4.738 -2.41,-12.589 -2.41,-23.566 V 52.6211 h -30.31 V 166.68" /><path
         id="path42"
         style="fill:#2350a9;fill-opacity:1;fill-rule:nonzero;stroke:none"
         d="m 2059.55,119.18 c -0.22,8.879 -2.48,15.625 -6.82,20.254 -4.32,4.621 -9.58,6.933 -15.78,6.933 -6.62,0 -12.11,-2.441 -16.43,-7.312 -4.32,-4.875 -6.44,-11.504 -6.37,-19.875 z m -1.57,-30.6214 30,-5 c -3.88,-11 -10.01,-19.3789 -18.38,-25.1289 -8.37,-5.75 -18.84,-8.6211 -31.42,-8.6211 -19.9,0 -34.63,6.5 -44.19,19.5117 -7.55,10.4297 -11.32,23.5703 -11.32,39.4687 0,18.965 4.96,33.828 14.86,44.582 9.93,10.75 22.45,16.121 37.6,16.121 17.03,0 30.46,-5.644 40.29,-16.914 9.85,-11.289 14.56,-28.555 14.13,-51.836 h -75.94 c 0.21,-8.9803 2.67,-15.9529 7.38,-20.9529 4.69,-4.9805 10.55,-7.4805 17.58,-7.4805 4.76,0 8.78,1.2734 12.03,3.8398 3.26,2.5625 5.72,6.7032 7.38,12.4102" /><path
         id="path44"
         style="fill:#2350a9;fill-opacity:1;fill-rule:nonzero;stroke:none"
         d="m 2224.44,52.6211 h -30.31 v 58.3359 c 0,12.344 -0.65,20.324 -1.93,23.945 -1.29,3.625 -3.38,6.446 -6.27,8.457 -2.89,2.004 -6.36,3.008 -10.43,3.008 -5.19,0 -9.87,-1.433 -14,-4.304 -4.14,-2.872 -6.97,-6.672 -8.52,-11.407 -1.52,-4.738 -2.29,-13.488 -2.29,-26.261 V 52.6211 h -30.31 V 166.68 h 28.12 v -16.758 c 9.95,13.047 22.49,19.57 37.59,19.57 6.66,0 12.75,-1.211 18.26,-3.613 5.51,-2.402 9.69,-5.469 12.52,-9.199 2.82,-3.731 4.79,-7.957 5.9,-12.696 1.11,-4.734 1.67,-11.511 1.67,-20.332 V 52.6211" /><path
         id="path46"
         style="fill:#2350a9;fill-opacity:1;fill-rule:nonzero;stroke:none"
         d="m 2313.86,166.68 v -24.063 h -20.62 V 96.4766 c 0,-9.3477 0.18,-14.7969 0.57,-16.336 0.38,-1.5508 1.26,-2.8203 2.64,-3.832 1.38,-1 3.04,-1.5 5.01,-1.5 2.75,0 6.72,0.9609 11.93,2.9023 l 2.66,-23.3906 c -6.99,-3.0117 -14.9,-4.5117 -23.73,-4.5117 -5.43,0 -10.3,0.9102 -14.65,2.7422 -4.34,1.8281 -7.54,4.1992 -9.57,7.1094 -2.03,2.8984 -3.44,6.8281 -4.22,11.789 -0.64,3.5117 -0.96,10.6211 -0.96,21.3164 v 49.8514 h -13.75 v 24.063 h 13.75 v 22.812 l 30.32,17.813 V 166.68 h 20.62" /><path
         id="path48"
         style="fill:#2350a9;fill-opacity:1;fill-rule:nonzero;stroke:none"
         d="m 2330.91,84.8086 30.32,4.6797 c 1.28,-5.8281 3.89,-10.25 7.83,-13.2774 3.93,-3.0312 9.44,-4.5312 16.52,-4.5312 7.8,0 13.67,1.4492 17.61,4.332 2.64,2.0196 3.97,4.7071 3.97,8.1094 0,2.3086 -0.72,4.2187 -2.16,5.7187 -1.52,1.4493 -4.91,2.7774 -10.16,4.0079 -24.49,5.4101 -40.02,10.3433 -46.56,14.7973 -9.09,6.171 -13.62,14.753 -13.62,25.73 0,9.914 3.92,18.242 11.77,24.992 7.85,6.746 20.03,10.125 36.51,10.125 15.71,0 27.37,-2.527 35,-7.578 7.64,-5.059 12.89,-12.527 15.79,-22.422 l -28.44,-5.312 c -1.23,4.433 -3.58,7.843 -7.01,10.207 -3.45,2.363 -8.36,3.543 -14.73,3.543 -8.05,0 -13.81,-1.114 -17.29,-3.36 -2.32,-1.582 -3.47,-3.632 -3.47,-6.152 0,-2.168 0.99,-4.004 3.02,-5.527 2.73,-2.012 12.17,-4.864 28.33,-8.536 16.15,-3.679 27.43,-8.183 33.83,-13.515 6.33,-5.399 9.51,-12.9298 9.51,-22.5783 0,-10.5117 -4.38,-19.5508 -13.11,-27.1133 -8.75,-7.5664 -21.67,-11.3398 -38.79,-11.3398 -15.54,0 -27.83,3.1406 -36.89,9.4102 -9.07,6.2929 -14.98,14.8007 -17.78,25.5898" /><path
         id="path50"
         style="fill:#2350a9;fill-opacity:1;fill-rule:nonzero;stroke:none"
         d="m 2621.95,114.805 -22.02,58.437 -21.28,-58.437 z m 58.45,-62.1839 h -34.32 l -13.62,35.6172 h -63.48 L 2556,52.6211 h -33.73 l 61.01,157.4959 h 33.51 L 2680.4,52.6211" /><path
         id="path52"
         style="fill:#2350a9;fill-opacity:1;fill-rule:nonzero;stroke:none"
         d="m 2732.44,52.6211 h -30.32 V 166.68 h 28.13 v -16.219 c 4.8,7.664 9.12,12.742 12.97,15.262 3.83,2.511 8.18,3.769 13.06,3.769 6.89,0 13.52,-1.914 19.91,-5.722 l -9.22,-26.407 c -5.11,3.293 -9.87,4.942 -14.24,4.942 -4.26,0 -7.85,-1.172 -10.8,-3.496 -2.95,-2.332 -5.27,-6.543 -6.95,-12.637 -1.7,-6.094 -2.54,-18.856 -2.54,-38.2814 V 52.6211" /><path
         id="path54"
         style="fill:#2350a9;fill-opacity:1;fill-rule:nonzero;stroke:none"
         d="m 2863.72,119.18 c -0.22,8.879 -2.49,15.625 -6.81,20.254 -4.34,4.621 -9.59,6.933 -15.78,6.933 -6.64,0 -12.11,-2.441 -16.44,-7.312 -4.32,-4.875 -6.45,-11.504 -6.37,-19.875 z m -1.57,-30.6214 30,-5 c -3.87,-11 -10.01,-19.3789 -18.38,-25.1289 -8.36,-5.75 -18.84,-8.6211 -31.41,-8.6211 -19.91,0 -34.65,6.5 -44.2,19.5117 -7.55,10.4297 -11.32,23.5703 -11.32,39.4687 0,18.965 4.95,33.828 14.87,44.582 9.91,10.75 22.45,16.121 37.6,16.121 17.01,0 30.45,-5.644 40.29,-16.914 9.84,-11.289 14.55,-28.555 14.12,-51.836 h -75.94 c 0.21,-8.9803 2.67,-15.9529 7.37,-20.9529 4.71,-4.9805 10.57,-7.4805 17.58,-7.4805 4.77,0 8.79,1.2734 12.05,3.8398 3.24,2.5625 5.7,6.7032 7.37,12.4102" /><path
         id="path56"
         style="fill:#2350a9;fill-opacity:1;fill-rule:nonzero;stroke:none"
         d="m 2987.67,107.305 c -3.87,-1.297 -9.98,-2.84 -18.34,-4.637 -8.36,-1.797 -13.83,-3.5664 -16.4,-5.2852 -3.93,-2.8125 -5.88,-6.3633 -5.88,-10.6836 0,-4.25 1.56,-7.9101 4.7,-11.0078 3.15,-3.0898 7.15,-4.6328 12.01,-4.6328 5.43,0 10.61,1.793 15.55,5.3906 3.63,2.7305 6.04,6.0703 7.18,10.0391 0.78,2.582 1.18,7.5156 1.18,14.7817 z m -40.62,24.687 -27.19,5 c 3.07,11.047 8.38,19.219 15.9,24.531 7.53,5.313 18.71,7.969 33.54,7.969 13.47,0 23.51,-1.601 30.1,-4.785 6.59,-3.203 11.24,-7.254 13.92,-12.168 2.69,-4.91 4.04,-13.934 4.04,-27.07 l -0.31,-35.2893 c 0,-10.0508 0.47,-17.4609 1.44,-22.2305 0.97,-4.7695 2.77,-9.8789 5.42,-15.3281 h -29.99 c -0.8,1.9687 -1.76,4.8984 -2.91,8.7891 -0.5,1.7617 -0.86,2.9296 -1.06,3.4882 -5.16,-5.0273 -10.67,-8.8086 -16.54,-11.3281 -5.87,-2.5 -12.13,-3.7617 -18.79,-3.7617 -11.73,0 -20.99,3.1914 -27.75,9.582 -6.76,6.3789 -10.14,14.461 -10.14,24.2188 0,6.4492 1.54,12.2109 4.61,17.2696 3.09,5.059 7.41,8.945 12.96,11.633 5.56,2.683 13.57,5.047 24.03,7.058 14.11,2.649 23.89,5.118 29.34,7.422 v 3.047 c 0,5.879 -1.44,10.07 -4.33,12.578 -2.88,2.5 -8.32,3.75 -16.31,3.75 -5.4,0 -9.61,-1.062 -12.64,-3.183 -3.03,-2.129 -5.48,-5.86 -7.34,-11.192" /><path
         id="path58"
         style="fill:#2350a9;fill-opacity:1;fill-rule:nonzero;stroke:none"
         d="M 676.813,828.996 H 470.426 c 0,33.867 -3.977,56.59 -11.895,68.164 -12.285,17.121 -46.183,25.692 -101.66,25.692 -53.887,0 -89.601,-4.93 -107.031,-14.801 -17.422,-9.903 -26.145,-31.43 -26.145,-64.578 0,-30.008 7.727,-49.77 23.203,-59.239 11.086,-6.722 25.743,-10.675 44.004,-11.851 l 41.621,-2.938 c 89.2,-5.925 144.915,-10.093 167.129,-12.468 70.547,-7.11 121.68,-25.864 153.418,-56.266 24.961,-23.719 39.856,-54.719 44.61,-92.996 2.773,-22.899 4.16,-48.817 4.16,-77.606 0,-66.359 -6.336,-114.953 -19.012,-145.754 -22.98,-56.511 -74.601,-92.207 -154.922,-107.195 -33.652,-6.34 -85.129,-9.504 -154.367,-9.504 -115.586,0 -196.133,6.875 -241.609,20.703 C 76.1094,305.305 39.3125,339.621 21.5,391.301 11.5781,420.07 6.66406,467.98 6.66406,535.051 H 213.043 c 0,-7.481 0.027,-13.196 0.027,-17.141 0,-35.789 10.285,-58.808 30.821,-69.062 14.23,-7.071 31.406,-10.782 51.601,-11.219 h 75.879 c 38.711,0 63.43,1.98 74.082,5.965 18.977,7.461 31.426,19.465 37.375,36.086 3.164,10.234 4.727,23.476 4.727,39.675 0,36.29 -13.242,58.372 -39.7,66.29 -9.89,3.125 -55.906,7.492 -138.046,13.019 -65.965,4.707 -111.786,9.238 -137.442,13.629 C 104.801,624.926 59.7695,650.926 37.3008,690.387 17.543,723.91 7.67188,774.645 7.67188,842.508 c 0,51.676 5.33202,93.113 16.00392,124.285 10.6836,31.176 27.8906,54.847 51.6406,71.037 34.7966,24.85 79.3086,39.45 133.4966,43.8 45.097,3.93 95.117,5.94 150.136,5.94 86.621,0 148.352,-4.98 185.149,-14.85 89.812,-24.13 134.707,-91.724 134.707,-202.786 0,-9.114 -0.664,-22.735 -1.992,-40.938" /><path
         id="path60"
         style="fill:#2350a9;fill-opacity:1;fill-rule:nonzero;stroke:none"
         d="m 1806.21,671.68 h 138.3 c 43.84,1.582 70.51,4.957 80.11,10.234 13.12,7.203 21.92,21.641 26.29,43.285 2.81,14.41 4.2,35.836 4.2,64.289 0,34.867 -2.77,60.707 -8.37,77.582 -7.98,23.645 -27.09,38.043 -57.35,43.274 -5.99,0.785 -20.31,1.211 -43.02,1.211 H 1806.21 Z M 1584.37,267.656 v 824.274 h 413.31 c 56.69,0 99.94,-4.63 129.67,-13.88 67.98,-21.3 113.58,-64.91 136.95,-130.82 12.05,-34.593 18.09,-86.667 18.09,-156.21 0,-83.614 -6.69,-143.696 -19.92,-180.282 -26.52,-72.34 -81.08,-114.008 -163.48,-124.808 -9.69,-1.621 -50.92,-3.067 -123.69,-4.231 l -36.83,-1.23 H 1806.21 V 267.656 h -221.84" /><path
         id="path62"
         style="fill:#2350a9;fill-opacity:1;fill-rule:nonzero;stroke:none"
         d="M 2711.88,570.695 2607.93,928 2507.07,570.695 Z m 44.05,-160.586 h -296.6 l -39.85,-142.453 h -229.52 l 247.65,824.274 h 334.65 l 250.69,-824.274 h -224.69 l -42.33,142.453" /><path
         id="path64"
         style="fill:#fbbc09;fill-opacity:1;fill-rule:nonzero;stroke:none"
         d="m 1278.18,975.965 c 91.49,0 173.15,-42.156 226.83,-108.172 l 47.83,102.531 c -74.8,70.686 -176.59,114.266 -288.85,114.266 -174.81,0 -324.338,-105.57 -385.705,-255.008 h -93.25 L 729.977,711.539 h 119.961 c -0.899,-10.949 -1.485,-21.91 -1.485,-33.086 0,-13.531 0.703,-26.902 2.039,-40.113 H 790.211 L 735.16,520.266 h 145.988 c 63.114,-145.664 210.782,-247.922 382.842,-247.922 86.71,0 167.17,25.976 233.79,70.363 v 144.707 c -53.65,-61.086 -132.12,-99.68 -219.6,-99.68 -102.27,0 -192.22,52.727 -244.59,132.532 h 305.7 l 55.06,118.074 H 988.609 c -2.089,14.211 -3.214,28.73 -3.214,43.519 0,10.008 0.519,19.899 1.484,29.68 h 441.591 l 55.05,118.043 h -458.46 c 50.71,87.5 145.05,146.383 253.12,146.383" /><path
         id="path66"
         style="fill:#2350a9;fill-opacity:1;fill-rule:nonzero;stroke:none"
         d="m 1025.06,826.035 h 458.46 l -3.21,5.047 -55.03,-118.055 3.19,2.047 h -441.591 -3.191 l -0.344,-3.215 c -0.985,-9.953 -1.485,-20.062 -1.485,-30 0,-14.601 1.094,-29.437 3.243,-44.05 l 0.468,-3.024 h 3.039 405.741 l -3.19,5.035 -55.06,-118.05 3.19,2.039 h -305.7 -6.57 l 3.61,-5.457 c 55.09,-84.016 147.64,-134.114 247.55,-134.114 84.93,0 165.95,36.731 222.27,100.84 l -6.22,2.336 V 342.707 l 1.57,2.918 c -68.5,-45.613 -148.65,-69.734 -231.81,-69.734 -165.91,0 -314.904,96.484 -379.572,245.8 l -0.938,2.118 H 881.148 735.16 l 3.235,-5.059 55.027,118.09 -3.211,-2.055 h 60.281 3.906 l -0.39,3.91 c -1.328,13.34 -2.02,26.75 -2.02,39.758 0,10.004 0.489,20.742 1.485,32.781 l 0.3,3.84 h -3.835 -119.961 l 3.191,-5.051 55.07,118.063 -3.203,-2.051 h 93.25 2.383 l 0.891,2.199 c 30.3,73.774 81.836,136.68 149.021,181.956 68.81,46.33 149.53,70.84 233.41,70.84 107.41,0 209.11,-40.21 286.41,-113.272 l -0.8,4.078 -47.78,-102.555 5.95,0.742 c -56.6,69.582 -140.27,109.485 -229.59,109.485 -105.08,0 -203.22,-56.77 -256.2,-148.156 l -3.08,-5.317 z m 253.12,146.391 c 87.19,0 168.86,-38.961 224.08,-106.875 l 3.57,-4.387 2.42,5.117 47.8,102.543 1.06,2.324 -1.83,1.762 c -78.61,74.3 -182.06,115.22 -291.29,115.22 -85.29,0 -167.37,-24.93 -237.37,-72.08 C 958.266,970.012 905.844,905.977 875.035,830.926 l 3.25,2.199 h -93.25 -2.265 l -0.95,-2.043 -55.047,-118.055 -2.343,-5.043 h 5.547 119.961 l -3.528,3.836 c -1.015,-12.25 -1.492,-23.144 -1.492,-33.367 0,-13.246 0.672,-26.887 2.039,-40.465 l 3.535,3.879 h -60.281 -2.246 l -0.949,-2.047 -55.067,-118.05 -2.336,-5.04 h 5.547 145.988 l -3.242,2.137 c 65.809,-151.894 217.364,-250.066 386.084,-250.066 84.58,0 166.07,24.519 235.75,70.945 l 1.56,1.047 v 1.914 144.707 9.402 l -6.19,-7.07 c -54.96,-62.566 -134.03,-98.445 -216.93,-98.445 -97.53,0 -187.86,48.953 -241.64,130.926 l -2.95,-5.497 h 305.7 2.27 l 0.94,2.02 55.06,118.09 2.36,5.027 h -5.57 -405.741 l 3.516,-3.015 c -2.102,14.293 -3.176,28.75 -3.176,43.007 0,9.707 0.489,19.567 1.465,29.325 l -3.535,-3.2 h 441.591 2.29 l 0.92,2.039 55.05,118.063 2.38,5.039 h -5.59 -458.46 l 3.05,-5.316 c 51.7,89.199 147.53,144.617 250.07,144.617" /></g></g></svg>