<svg xmlns="http://www.w3.org/2000/svg" width="148.512" height="148.512" viewBox="0 0 148.512 148.512"><defs><style>.a{opacity:0.75;}.b{fill:#006eda;}</style></defs><g class="a" transform="translate(-2 -2)"><path class="b" d="M35.426,44.9h4.95a2.475,2.475,0,0,1,2.475,2.475,2.475,2.475,0,1,0,4.95,0,7.426,7.426,0,0,0-7.426-7.426V37.475a2.475,2.475,0,0,0-4.95,0V39.95a7.426,7.426,0,1,0,0,14.851h4.95a2.475,2.475,0,0,1,0,4.95h-4.95a2.475,2.475,0,0,1-2.475-2.475,2.475,2.475,0,1,0-4.95,0A7.426,7.426,0,0,0,35.426,64.7v2.475a2.475,2.475,0,1,0,4.95,0V64.7a7.426,7.426,0,0,0,0-14.851h-4.95a2.475,2.475,0,0,1,0-4.95Z" transform="translate(38.355 48.682)"/><path class="b" d="M46.752,32A24.752,24.752,0,1,0,71.5,56.752,24.752,24.752,0,0,0,46.752,32Zm0,44.554a19.8,19.8,0,1,1,19.8-19.8,19.8,19.8,0,0,1-19.8,19.8Z" transform="translate(29.504 44.256)"/><path class="b" d="M55.426,54.9h4.95a2.475,2.475,0,0,1,2.475,2.475,2.475,2.475,0,0,0,4.95,0,7.426,7.426,0,0,0-7.426-7.426V47.475a2.475,2.475,0,0,0-4.95,0V49.95a7.426,7.426,0,0,0,0,14.851h4.95a2.475,2.475,0,1,1,0,4.95h-4.95a2.475,2.475,0,0,1-2.475-2.475,2.475,2.475,0,0,0-4.95,0A7.426,7.426,0,0,0,55.426,74.7v2.475a2.475,2.475,0,1,0,4.95,0V74.7a7.426,7.426,0,1,0,0-14.851h-4.95a2.475,2.475,0,0,1,0-4.95Z" transform="translate(67.859 63.434)"/><path class="b" d="M66.752,42A24.752,24.752,0,1,0,91.5,66.752,24.752,24.752,0,0,0,66.752,42Zm0,44.554a19.8,19.8,0,1,1,19.8-19.8A19.8,19.8,0,0,1,66.752,86.554Z" transform="translate(59.008 59.008)"/><path class="b" d="M15.426,54.9h4.95a2.475,2.475,0,0,1,2.475,2.475,2.475,2.475,0,0,0,4.95,0,7.426,7.426,0,0,0-7.426-7.426V47.475a2.475,2.475,0,1,0-4.95,0V49.95a7.426,7.426,0,0,0,0,14.851h4.95a2.475,2.475,0,1,1,0,4.95h-4.95a2.475,2.475,0,0,1-2.475-2.475,2.475,2.475,0,0,0-4.95,0A7.426,7.426,0,0,0,15.426,74.7v2.475a2.475,2.475,0,1,0,4.95,0V74.7a7.426,7.426,0,0,0,0-14.851h-4.95a2.475,2.475,0,1,1,0-4.95Z" transform="translate(8.851 63.434)"/><path class="b" d="M26.752,42A24.752,24.752,0,1,0,51.5,66.752,24.752,24.752,0,0,0,26.752,42Zm0,44.554a19.8,19.8,0,1,1,19.8-19.8,19.8,19.8,0,0,1-19.8,19.8Z" transform="translate(0 59.008)"/><path class="b" d="M27.475,26.752h4.95V39.128a2.475,2.475,0,0,0,4.95,0V24.277A2.475,2.475,0,0,0,34.9,21.8h-2.49L42.262,8.6l9.95,13.2h-2.46a2.475,2.475,0,0,0-2.475,2.475V39.128a2.475,2.475,0,0,0,4.95,0V26.752h4.95a2.475,2.475,0,0,0,1.98-3.96L44.23,2.99A2.475,2.475,0,0,0,42.25,2h0a2.475,2.475,0,0,0-1.98.99L25.5,22.792a2.475,2.475,0,0,0,1.98,3.96Z" transform="translate(33.93 0)"/><path class="b" d="M7.475,35.752h4.95V50.6a2.475,2.475,0,1,0,4.95,0V33.277A2.475,2.475,0,0,0,14.9,30.8h-2.49l9.851-13.2,9.95,13.2h-2.46a2.475,2.475,0,0,0-2.475,2.475V50.6a2.475,2.475,0,1,0,4.95,0V35.752h4.95a2.475,2.475,0,0,0,1.98-3.96L24.232,11.99a2.475,2.475,0,0,0-1.98-.99h0a2.475,2.475,0,0,0-1.98.99L5.5,31.792a2.475,2.475,0,0,0,1.98,3.96Z" transform="translate(4.426 13.277)"/><path class="b" d="M38.95,22.475a2.475,2.475,0,0,0-4.95,0V24.95a2.475,2.475,0,0,0,4.95,0Z" transform="translate(47.207 26.554)"/><path class="b" d="M32.95,22.475a2.475,2.475,0,0,0-4.95,0V24.95a2.475,2.475,0,0,0,4.95,0Z" transform="translate(38.355 26.554)"/><path class="b" d="M38.95,26.475a2.475,2.475,0,1,0-4.95,0V28.95a2.475,2.475,0,0,0,4.95,0Z" transform="translate(47.207 32.455)"/><path class="b" d="M32.95,26.475a2.475,2.475,0,1,0-4.95,0V28.95a2.475,2.475,0,0,0,4.95,0Z" transform="translate(38.355 32.455)"/><path class="b" d="M36.475,28A2.475,2.475,0,0,0,34,30.475V32.95a2.475,2.475,0,1,0,4.95,0V30.475A2.475,2.475,0,0,0,36.475,28Z" transform="translate(47.207 38.355)"/><path class="b" d="M30.475,28A2.475,2.475,0,0,0,28,30.475V32.95a2.475,2.475,0,0,0,4.95,0V30.475A2.475,2.475,0,0,0,30.475,28Z" transform="translate(38.355 38.355)"/><path class="b" d="M12.95,32.475a2.475,2.475,0,0,0-4.95,0V34.95a2.475,2.475,0,0,0,4.95,0Z" transform="translate(8.851 41.306)"/><path class="b" d="M12.95,36.475a2.475,2.475,0,0,0-4.95,0V38.95a2.475,2.475,0,1,0,4.95,0Z" transform="translate(8.851 47.207)"/><path class="b" d="M10.475,38A2.475,2.475,0,0,0,8,40.475V42.95a2.475,2.475,0,0,0,4.95,0V40.475A2.475,2.475,0,0,0,10.475,38Z" transform="translate(8.851 53.107)"/><path class="b" d="M18.95,32.475a2.475,2.475,0,0,0-4.95,0V34.95a2.475,2.475,0,0,0,4.95,0Z" transform="translate(17.702 41.306)"/><path class="b" d="M18.95,36.475a2.475,2.475,0,0,0-4.95,0V38.95a2.475,2.475,0,1,0,4.95,0Z" transform="translate(17.702 47.207)"/><path class="b" d="M16.475,38A2.475,2.475,0,0,0,14,40.475V42.95a2.475,2.475,0,0,0,4.95,0V40.475A2.475,2.475,0,0,0,16.475,38Z" transform="translate(17.702 53.107)"/><path class="b" d="M47.475,34.752h4.95V49.6a2.475,2.475,0,0,0,4.95,0V32.277A2.475,2.475,0,0,0,54.9,29.8h-2.49l9.851-13.2,9.95,13.2h-2.46a2.475,2.475,0,0,0-2.475,2.475V49.6a2.475,2.475,0,0,0,4.95,0V34.752h4.95a2.475,2.475,0,0,0,1.98-3.96L64.232,10.99a2.475,2.475,0,0,0-1.98-.99h0a2.475,2.475,0,0,0-1.98.99L45.5,30.792a2.475,2.475,0,0,0,1.98,3.96Z" transform="translate(63.434 11.802)"/><path class="b" d="M52.95,31.475a2.475,2.475,0,0,0-4.95,0V33.95a2.475,2.475,0,1,0,4.95,0Z" transform="translate(67.859 39.831)"/><path class="b" d="M52.95,35.475a2.475,2.475,0,0,0-4.95,0V37.95a2.475,2.475,0,1,0,4.95,0Z" transform="translate(67.859 45.731)"/><path class="b" d="M50.475,37A2.475,2.475,0,0,0,48,39.475V41.95a2.475,2.475,0,1,0,4.95,0V39.475A2.475,2.475,0,0,0,50.475,37Z" transform="translate(67.859 51.632)"/><path class="b" d="M58.95,31.475a2.475,2.475,0,0,0-4.95,0V33.95a2.475,2.475,0,0,0,4.95,0Z" transform="translate(76.711 39.831)"/><path class="b" d="M58.95,35.475a2.475,2.475,0,0,0-4.95,0V37.95a2.475,2.475,0,0,0,4.95,0Z" transform="translate(76.711 45.731)"/><path class="b" d="M56.475,37A2.475,2.475,0,0,0,54,39.475V41.95a2.475,2.475,0,0,0,4.95,0V39.475A2.475,2.475,0,0,0,56.475,37Z" transform="translate(76.711 51.632)"/></g></svg>