<svg xmlns="http://www.w3.org/2000/svg" width="26.996" height="22.998" viewBox="0 0 26.996 22.998">
  <path id="Twitter_Icon" data-name="Twitter Icon" d="M1039,3372.724a10.714,10.714,0,0,1-3.181.915,5.782,5.782,0,0,0,2.435-3.211,10.8,10.8,0,0,1-3.517,1.409,5.411,5.411,0,0,0-4.043-1.834,5.676,5.676,0,0,0-5.539,5.806,6.121,6.121,0,0,0,.144,1.324,15.494,15.494,0,0,1-11.415-6.067,6,6,0,0,0-.749,2.92,5.883,5.883,0,0,0,2.464,4.833,5.348,5.348,0,0,1-2.509-.727v.073a5.749,5.749,0,0,0,4.443,5.694,5.346,5.346,0,0,1-1.459.2,5.225,5.225,0,0,1-1.042-.106,5.584,5.584,0,0,0,5.174,4.031,10.816,10.816,0,0,1-8.2,2.406,15.167,15.167,0,0,0,8.491,2.607c10.188,0,15.758-8.847,15.758-16.518,0-.253-.006-.5-.016-.75a11.591,11.591,0,0,0,2.764-3.005Z" transform="translate(-1012.003 -3370.001)" fill="#26272d" opacity="0.302"/>
</svg>
