<svg id="Component_7_1" data-name="Component 7 – 1" xmlns="http://www.w3.org/2000/svg" width="18.682" height="29.469" viewBox="0 0 18.682 29.469">
  <g id="Group_75" data-name="Group 75">
    <path id="Path_355" data-name="Path 355" d="M17.332,12.839h-.368V9c0-4.958-3.419-9-7.625-9S1.712,4.035,1.712,9a.766.766,0,0,0,.7.824A.766.766,0,0,0,3.108,9c0-4.051,2.792-7.354,6.23-7.354s6.23,3.3,6.23,7.354v3.837H1.351A1.492,1.492,0,0,0,0,14.433v10.26c0,2.632,1.816,4.775,4.045,4.775H14.637c2.229,0,4.045-2.144,4.045-4.775V14.433a1.5,1.5,0,0,0-1.351-1.594ZM17.28,24.693a2.918,2.918,0,0,1-2.65,3.128H4.045A2.918,2.918,0,0,1,1.4,24.693V14.486H17.28Zm0,0" fill="#aeb1b3"/>
    <path id="Path_356" data-name="Path 356" d="M106,242.105a1.8,1.8,0,1,0-1.8-1.8,1.806,1.806,0,0,0,1.8,1.8Zm0-2.646a.841.841,0,1,1-.839.843.841.841,0,0,1,.839-.843Zm0,0" transform="translate(-96.658 -218.309)" fill="#aeb1b3"/>
  </g>
</svg>
